<svg width="16" height="17" viewBox="0 0 16 17" fill="none" xmlns="http://www.w3.org/2000/svg">
<g clip-path="url(#clip0_1038_46543)">
<path d="M10.2308 3.07704H3.30769V4.2199H10.2308V3.07704Z" fill="white"/>
<path d="M10.2308 5.36275H3.30769V6.50561H10.2308V5.36275Z" fill="white"/>
<path d="M6.76922 7.64847H3.30769V8.79132H6.76922V7.64847Z" fill="white"/>
<path d="M5.61538 9.93418H3.30769V11.077H5.61538V9.93418Z" fill="white"/>
<path d="M15.8309 9.91113L14.1002 8.19685C14.0466 8.14376 13.983 8.10165 13.9131 8.07292C13.8431 8.04419 13.7681 8.0294 13.6923 8.0294C13.6165 8.0294 13.5415 8.04419 13.4715 8.07292C13.4015 8.10165 13.338 8.14376 13.2844 8.19685L7.92307 13.5071V16.0294H10.4697L15.8309 10.7191C15.8845 10.6661 15.9271 10.6031 15.9561 10.5338C15.9851 10.4645 16 10.3902 16 10.3151C16 10.2401 15.9851 10.1658 15.9561 10.0965C15.9271 10.0271 15.8845 9.96417 15.8309 9.91113ZM9.99185 14.8866H9.07691V13.9803L11.9615 11.1232L12.8765 12.0294L9.99185 14.8866ZM13.6923 11.2214L12.7774 10.3151L13.6923 9.40891L14.6072 10.3151L13.6923 11.2214Z" fill="white"/>
<path d="M5.61538 14.6499H2.15384C1.84792 14.6496 1.55463 14.5291 1.33831 14.3148C1.12199 14.1006 1.00032 13.8101 1 13.5071L1 1.17228C1.00032 0.869269 1.12199 0.578763 1.33831 0.364505C1.55463 0.150246 1.84792 0.0297366 2.15384 0.0294189H11.3846C11.6905 0.0297366 11.9838 0.150246 12.2001 0.364505C12.4165 0.578763 12.5381 0.869269 12.5384 1.17228V6.88656H11.3846V1.17228H2.15384V13.5071H5.61538V14.6499Z" fill="white"/>
</g>
<defs>
<clipPath id="clip0_1038_46543">
<rect width="16" height="16" fill="white" transform="translate(0 0.0294189)"/>
</clipPath>
</defs>
</svg>
