<svg width="20" height="20" viewBox="0 0 20 20" fill="none" xmlns="http://www.w3.org/2000/svg">
<path d="M11.817 16.6291C11.4774 16.7186 11.2431 17.0447 11.3037 17.3906C11.3638 17.7341 11.6918 17.9665 12.0297 17.8798C12.5388 17.7493 13.0339 17.5693 13.508 17.3424C13.8204 17.1929 13.922 16.807 13.7487 16.5072C13.5764 16.2091 13.197 16.1087 12.8833 16.2505C12.539 16.4061 12.1823 16.5327 11.817 16.6291Z" fill="current"/>
<path d="M15.6603 13.9071C15.4557 14.1975 15.4903 14.6033 15.7663 14.8269C16.0345 15.0442 16.4298 15.007 16.6297 14.7256C16.9359 14.2947 17.1993 13.835 17.4162 13.3529C17.5576 13.0386 17.3879 12.6797 17.0641 12.562C16.7414 12.4446 16.3871 12.611 16.2387 12.9206C16.0736 13.2649 15.8801 13.5949 15.6603 13.9071Z" fill="current"/>
<path d="M6.24773 16.4853C6.07603 16.7875 6.17933 17.1741 6.49287 17.3241C6.96603 17.5505 7.46017 17.7301 7.96823 17.8605C8.30724 17.9475 8.6364 17.7144 8.69673 17.3697C8.75718 17.0242 8.52459 16.6982 8.1861 16.6066C7.82356 16.5084 7.46977 16.3803 7.12838 16.2237C6.80919 16.0773 6.42122 16.18 6.24773 16.4853Z" fill="current"/>
<path d="M3.11547 12.5C3.03933 12.5 2.96402 12.5158 2.89433 12.5465L2.88446 12.5508C2.59709 12.6773 2.45352 13.005 2.57798 13.2932C2.81828 13.8498 3.12016 14.3778 3.47805 14.8674C3.63708 15.0849 3.91795 15.1698 4.17665 15.0943L4.23054 15.0786C4.40013 15.0291 4.53642 14.9025 4.59826 14.7371C4.66886 14.5481 4.63156 14.3364 4.50476 14.1795C4.16317 13.7568 3.87064 13.3432 3.64619 12.8556C3.54965 12.6459 3.34633 12.5 3.11547 12.5Z" fill="current"/>
<path d="M17.498 10C17.8441 10 18.127 9.7187 18.0994 9.37369C18.0572 8.84591 17.9628 8.32359 17.8178 7.81437C17.7238 7.48437 17.3646 7.31973 17.0421 7.43699C16.7185 7.55468 16.5543 7.91188 16.6424 8.2448C16.7408 8.61635 16.8083 8.99538 16.8443 9.37803C16.8766 9.72104 17.1534 10 17.498 10Z" fill="current"/>
<path d="M16.25 4.78129C15.4876 3.8634 14.5323 3.12472 13.4521 2.61774C12.3719 2.11076 11.1933 1.84793 10 1.84793C8.80675 1.84793 7.62814 2.11076 6.54794 2.61774C5.46774 3.12472 4.51246 3.8634 3.75001 4.78129V2.50004H2.50001V7.50004H7.50001V6.25004H4.25626C4.84285 5.3539 5.63071 4.60721 6.55701 4.06951C7.48332 3.5318 8.52244 3.21796 9.59152 3.153C10.6606 3.08804 11.7301 3.27377 12.7147 3.69536C13.6993 4.11696 14.5717 4.76277 15.2625 5.58129L16.25 4.78129Z" fill="current"/>
</svg>
