<svg width="16" height="15" viewBox="0 0 16 15" fill="none" xmlns="http://www.w3.org/2000/svg">
<path d="M8 14.5C11.866 14.5 15 11.366 15 7.5C15 3.63401 11.866 0.5 8 0.5C4.13401 0.5 1 3.63401 1 7.5C1 11.366 4.13401 14.5 8 14.5Z" stroke="#A6B5CA" stroke-linecap="round" stroke-linejoin="round"/>
<path d="M5.96289 5.4002C6.12746 4.93237 6.4523 4.53788 6.87986 4.2866C7.30742 4.03531 7.81012 3.94346 8.29891 4.0273C8.78771 4.11114 9.23106 4.36527 9.55044 4.74467C9.86983 5.12408 10.0446 5.60427 10.0439 6.1002C10.0439 7.5002 7.94389 8.2002 7.94389 8.2002" stroke="#A6B5CA" stroke-linecap="round" stroke-linejoin="round"/>
<path d="M8 11H8.007" stroke="#A6B5CA" stroke-linecap="round" stroke-linejoin="round"/>
</svg>
