<svg width="17" height="16" viewBox="0 0 17 16" fill="none" xmlns="http://www.w3.org/2000/svg">
<path d="M8.51563 1C7.13116 1 5.77778 1.41054 4.62664 2.17971C3.47549 2.94888 2.57828 4.04213 2.04847 5.32122C1.51866 6.6003 1.38003 8.00776 1.65013 9.36563C1.92023 10.7235 2.58691 11.9708 3.56588 12.9497C4.54485 13.9287 5.79213 14.5954 7.15 14.8655C8.50786 15.1356 9.91533 14.997 11.1944 14.4672C12.4735 13.9373 13.5667 13.0401 14.3359 11.889C15.1051 10.7378 15.5156 9.38447 15.5156 8C15.5156 6.14348 14.7781 4.36301 13.4654 3.05025C12.1526 1.7375 10.3721 1 8.51563 1ZM8.51563 14C7.32894 14 6.1689 13.6481 5.18221 12.9888C4.19551 12.3295 3.42648 11.3925 2.97235 10.2961C2.51823 9.19974 2.39941 7.99334 2.63092 6.82946C2.86243 5.66557 3.43387 4.59647 4.27299 3.75736C5.1121 2.91824 6.1812 2.3468 7.34509 2.11529C8.50897 1.88378 9.71537 2.0026 10.8117 2.45672C11.9081 2.91085 12.8452 3.67988 13.5044 4.66658C14.1637 5.65327 14.5156 6.81331 14.5156 8C14.5156 9.5913 13.8835 11.1174 12.7583 12.2426C11.633 13.3679 10.1069 14 8.51563 14Z" fill="white"/>
<path d="M8.51563 12.5C8.92984 12.5 9.26563 12.1642 9.26563 11.75C9.26563 11.3358 8.92984 11 8.51563 11C8.10141 11 7.76563 11.3358 7.76563 11.75C7.76563 12.1642 8.10141 12.5 8.51563 12.5Z" fill="white"/>
<path d="M9.01563 4H8.26563C7.96997 3.99934 7.67709 4.05709 7.40381 4.16993C7.13053 4.28277 6.88223 4.44848 6.67317 4.65754C6.4641 4.8666 6.2984 5.1149 6.18556 5.38818C6.07272 5.66146 6.01497 5.95434 6.01563 6.25V6.5H7.01563V6.25C7.01563 5.91848 7.14732 5.60054 7.38174 5.36612C7.61616 5.1317 7.93411 5 8.26563 5H9.01563C9.34715 5 9.66509 5.1317 9.89951 5.36612C10.1339 5.60054 10.2656 5.91848 10.2656 6.25C10.2656 6.58152 10.1339 6.89946 9.89951 7.13388C9.66509 7.3683 9.34715 7.5 9.01563 7.5H8.01563V9.75H9.01563V8.5C9.61236 8.5 10.1847 8.26295 10.6066 7.84099C11.0286 7.41903 11.2656 6.84674 11.2656 6.25C11.2656 5.65326 11.0286 5.08097 10.6066 4.65901C10.1847 4.23705 9.61236 4 9.01563 4Z" fill="white"/>
</svg>
