<svg width="14" height="11" viewBox="0 0 14 11" fill="none" xmlns="http://www.w3.org/2000/svg">
<path fill-rule="evenodd" clip-rule="evenodd" d="M0.792895 8.79289C0.402371 9.18342 0.402371 9.81658 0.792895 10.2071C1.18342 10.5976 1.81658 10.5976 2.20711 10.2071L6.20711 6.20711L6.91422 5.5L6.20711 4.79289L2.20711 0.792893C1.81658 0.402368 1.18342 0.402369 0.792895 0.792893C0.40237 1.18342 0.40237 1.81658 0.792895 2.20711L4.08579 5.5L0.792895 8.79289ZM7.7929 8.79289C7.40237 9.18342 7.40237 9.81658 7.7929 10.2071C8.18342 10.5976 8.81658 10.5976 9.20711 10.2071L13.2071 6.20711L13.9142 5.5L13.2071 4.79289L9.20711 0.792893C8.81658 0.402368 8.18342 0.402368 7.79289 0.792893C7.40237 1.18342 7.40237 1.81658 7.79289 2.20711L11.0858 5.5L7.7929 8.79289Z" fill="current"/>
</svg>
