<svg width="11" height="14" viewBox="0 0 11 14" fill="none" xmlns="http://www.w3.org/2000/svg">
<path fill-rule="evenodd" clip-rule="evenodd" d="M2.20711 0.792893C1.81658 0.402369 1.18342 0.402369 0.792893 0.792893C0.402369 1.18342 0.402369 1.81658 0.792893 2.20711L4.79289 6.20711L5.5 6.91421L6.20711 6.20711L10.2071 2.20711C10.5976 1.81658 10.5976 1.18342 10.2071 0.792893C9.81658 0.402369 9.18342 0.402369 8.79289 0.792893L5.5 4.08579L2.20711 0.792893ZM2.20711 7.79289C1.81658 7.40237 1.18342 7.40237 0.792893 7.79289C0.402369 8.18342 0.402369 8.81658 0.792893 9.20711L4.79289 13.2071L5.5 13.9142L6.20711 13.2071L10.2071 9.20711C10.5976 8.81658 10.5976 8.18342 10.2071 7.79289C9.81658 7.40237 9.18342 7.40237 8.79289 7.79289L5.5 11.0858L2.20711 7.79289Z" fill="current"/>
</svg>
