<svg width="28" height="28" viewBox="0 0 28 28" fill="none" xmlns="http://www.w3.org/2000/svg">
<path d="M18.455 18.455C17.1729 19.4323 15.6118 19.9736 14 20C8.75 20 5.75 14 5.75 14C6.68292 12.2614 7.97685 10.7425 9.545 9.54502M12.425 8.18002C12.9412 8.05918 13.4698 7.99877 14 8.00002C19.25 8.00002 22.25 14 22.25 14C21.7947 14.8517 21.2518 15.6536 20.63 16.3925M15.59 15.59C15.384 15.8111 15.1356 15.9884 14.8596 16.1113C14.5836 16.2343 14.2857 16.3005 13.9836 16.3058C13.6815 16.3111 13.3814 16.2555 13.1012 16.1424C12.821 16.0292 12.5665 15.8608 12.3529 15.6471C12.1392 15.4335 11.9708 15.179 11.8576 14.8988C11.7445 14.6186 11.6889 14.3185 11.6942 14.0164C11.6996 13.7143 11.7657 13.4164 11.8887 13.1404C12.0116 12.8644 12.1889 12.616 12.41 12.41" stroke="current" stroke-linecap="round" stroke-linejoin="round"/>
<path d="M7.75 7L20.75 21" stroke="current" stroke-linecap="round" stroke-linejoin="round"/>
</svg>
