<svg width="16" height="15" viewBox="0 0 16 15" fill="none" xmlns="http://www.w3.org/2000/svg">
<path d="M14 13.6665L12.6667 12.3332M7.59333 7.25984L10.3333 9.99984M10.3333 9.99984L12.3333 7.99984L14.6667 10.3332L12.6667 12.3332M10.3333 9.99984L12.6667 12.3332M7.59333 7.25984C7.93756 6.92019 8.2112 6.51581 8.3985 6.06998C8.5858 5.62414 8.68306 5.14566 8.68468 4.66208C8.6863 4.1785 8.59225 3.69938 8.40794 3.2523C8.22363 2.80522 7.95271 2.39902 7.61076 2.05707C7.26882 1.71513 6.86261 1.4442 6.41553 1.25989C5.96845 1.07558 5.48933 0.981532 5.00575 0.983152C4.52218 0.984772 4.04369 1.08203 3.59786 1.26933C3.15202 1.45663 2.74764 1.73028 2.408 2.0745C1.74009 2.76604 1.37051 3.69225 1.37886 4.65364C1.38722 5.61503 1.77283 6.53468 2.45266 7.21451C3.13249 7.89433 4.05214 8.27995 5.01353 8.28831C5.97492 8.29666 6.90113 7.92708 7.59267 7.25917L7.59333 7.25984Z" stroke="white" stroke-linecap="round" stroke-linejoin="round"/>
</svg>
