<svg width="32" height="32" viewBox="0 0 32 32" fill="none" xmlns="http://www.w3.org/2000/svg">
<mask id="path-1-inside-1_641_909" fill="white">
<path d="M16 5.5C14.6008 5.49959 13.2159 5.78051 11.9274 6.32607C10.639 6.87163 9.47343 7.67068 8.5 8.67573V5.5H7V11.5H13V10H9.30872C10.7139 8.43968 12.6211 7.42069 14.6993 7.11995C16.7774 6.8192 18.8952 7.25569 20.6851 8.35363C22.475 9.45157 23.8239 11.1416 24.4976 13.1304C25.1713 15.1192 25.1273 17.2811 24.3732 19.2408C23.6191 21.2005 22.2026 22.8343 20.3695 23.8585C18.5365 24.8827 16.4026 25.2327 14.3384 24.8476C12.2743 24.4626 10.4101 23.3668 9.06956 21.7506C7.72904 20.1344 6.99681 18.0998 7 16H5.5C5.5 18.0767 6.11581 20.1068 7.26956 21.8335C8.42332 23.5602 10.0632 24.906 11.9818 25.7007C13.9004 26.4955 16.0116 26.7034 18.0484 26.2982C20.0852 25.8931 21.9562 24.8931 23.4246 23.4246C24.8931 21.9562 25.8931 20.0852 26.2982 18.0484C26.7034 16.0116 26.4955 13.9004 25.7007 11.9818C24.906 10.0632 23.5602 8.42332 21.8335 7.26957C20.1068 6.11581 18.0767 5.5 16 5.5Z"/>
</mask>
<path d="M16 5.5V6.5L15.9997 6.5L16 5.5ZM11.9274 6.32607L12.3173 7.24692V7.24692L11.9274 6.32607ZM8.5 8.67573L9.21831 9.37145L7.5 11.1456V8.67573H8.5ZM8.5 5.5V4.5H9.5V5.5H8.5ZM7 5.5H6V4.5H7V5.5ZM7 11.5V12.5H6V11.5H7ZM13 11.5H14V12.5H13V11.5ZM13 10V9H14V10H13ZM9.30872 10V11H7.06241L8.56564 9.3308L9.30872 10ZM14.6993 7.11995L14.8425 8.10964L14.6993 7.11995ZM24.4976 13.1304L25.4447 12.8096L24.4976 13.1304ZM24.3732 19.2408L23.4399 18.8817L24.3732 19.2408ZM20.3695 23.8585L19.8818 22.9855L20.3695 23.8585ZM7 16V15H8.00152L7.99999 16.0015L7 16ZM5.5 16H4.5V15H5.5V16ZM23.4246 23.4246L22.7175 22.7175H22.7175L23.4246 23.4246ZM25.7007 11.9818L24.7769 12.3645L25.7007 11.9818ZM21.8335 7.26957L22.3891 6.4381V6.4381L21.8335 7.26957ZM15.9997 6.5C14.7346 6.49963 13.4823 6.75364 12.3173 7.24692L11.5375 5.40522C12.9494 4.80739 14.4671 4.49955 16.0003 4.5L15.9997 6.5ZM12.3173 7.24692C11.1524 7.74021 10.0985 8.4627 9.21831 9.37145L7.78168 7.98001C8.84838 6.87867 10.1256 6.00305 11.5375 5.40522L12.3173 7.24692ZM7.5 8.67573V5.5H9.5V8.67573H7.5ZM8.5 6.5H7V4.5H8.5V6.5ZM8 5.5V11.5H6V5.5H8ZM7 10.5H13V12.5H7V10.5ZM12 11.5V10H14V11.5H12ZM13 11H9.30872V9H13V11ZM8.56564 9.3308C10.1272 7.59685 12.2466 6.46447 14.556 6.13026L14.8425 8.10964C12.9956 8.37692 11.3006 9.28251 10.0518 10.6692L8.56564 9.3308ZM14.556 6.13026C16.8654 5.79604 19.2189 6.2811 21.208 7.50122L20.1622 9.20603C18.5715 8.23027 16.6894 7.84236 14.8425 8.10964L14.556 6.13026ZM21.208 7.50122C23.1971 8.72134 24.696 10.5995 25.4447 12.8096L23.5505 13.4513C22.9517 11.6838 21.7529 10.1818 20.1622 9.20603L21.208 7.50122ZM25.4447 12.8096C26.1934 15.0197 26.1445 17.4221 25.3065 19.5999L23.4399 18.8817C24.1101 17.1401 24.1492 15.2187 23.5505 13.4513L25.4447 12.8096ZM25.3065 19.5999C24.4685 21.7777 22.8944 23.5933 20.8573 24.7315L19.8818 22.9855C21.5109 22.0753 22.7698 20.6233 23.4399 18.8817L25.3065 19.5999ZM20.8573 24.7315C18.8203 25.8697 16.449 26.2586 14.1551 25.8307L14.5218 23.8646C16.3563 24.2068 18.2527 23.8958 19.8818 22.9855L20.8573 24.7315ZM14.1551 25.8307C11.8612 25.4028 9.78956 24.1851 8.29986 22.389L9.83926 21.1122C11.0306 22.5486 12.6873 23.5224 14.5218 23.8646L14.1551 25.8307ZM8.29986 22.389C6.81017 20.593 5.99645 18.3319 6 15.9985L7.99999 16.0015C7.99716 17.8676 8.64791 19.6758 9.83926 21.1122L8.29986 22.389ZM7 17H5.5V15H7V17ZM6.5 16C6.5 17.8789 7.05716 19.7156 8.10103 21.2779L6.4381 22.3891C5.17446 20.4979 4.5 18.2745 4.5 16H6.5ZM8.10103 21.2779C9.14491 22.8402 10.6286 24.0578 12.3645 24.7769L11.5991 26.6246C9.49779 25.7542 7.70173 24.2802 6.4381 22.3891L8.10103 21.2779ZM12.3645 24.7769C14.1004 25.4959 16.0105 25.684 17.8534 25.3175L18.2435 27.279C16.0128 27.7228 13.7005 27.495 11.5991 26.6246L12.3645 24.7769ZM17.8534 25.3175C19.6962 24.9509 21.3889 24.0461 22.7175 22.7175L24.1317 24.1317C22.5234 25.74 20.4743 26.8353 18.2435 27.279L17.8534 25.3175ZM22.7175 22.7175C24.0461 21.3889 24.9509 19.6962 25.3175 17.8534L27.279 18.2435C26.8353 20.4743 25.74 22.5234 24.1317 24.1317L22.7175 22.7175ZM25.3175 17.8534C25.684 16.0105 25.4959 14.1004 24.7769 12.3645L26.6246 11.5991C27.495 13.7005 27.7228 16.0128 27.279 18.2435L25.3175 17.8534ZM24.7769 12.3645C24.0578 10.6286 22.8402 9.14491 21.2779 8.10104L22.3891 6.4381C24.2802 7.70174 25.7542 9.49779 26.6246 11.5991L24.7769 12.3645ZM21.2779 8.10104C19.7156 7.05717 17.8789 6.5 16 6.5V4.5C18.2745 4.5 20.4979 5.17446 22.3891 6.4381L21.2779 8.10104Z" fill="current" mask="url(#path-1-inside-1_641_909)"/>
</svg>
