<svg width="17" height="16" viewBox="0 0 17 16" fill="none" xmlns="http://www.w3.org/2000/svg">
<path d="M3.51562 15H9.51562C9.78075 14.9997 10.0349 14.8942 10.2224 14.7068C10.4099 14.5193 10.5153 14.2651 10.5156 14V12.5H9.51562V14H3.51562V2H9.51562V3.5H10.5156V2C10.5153 1.73488 10.4099 1.4807 10.2224 1.29323C10.0349 1.10576 9.78075 1.0003 9.51562 1H3.51562C3.2505 1.0003 2.99632 1.10576 2.80885 1.29323C2.62138 1.4807 2.51593 1.73488 2.51562 2V14C2.51593 14.2651 2.62138 14.5193 2.80885 14.7068C2.99632 14.8942 3.2505 14.9997 3.51562 15Z" fill="white"/>
<path d="M10.8086 10.293L12.6016 8.5H5.51562V7.5H12.6016L10.8086 5.707L11.5156 5L14.5156 8L11.5156 11L10.8086 10.293Z" fill="white"/>
</svg>
