<svg width="48" height="48" viewBox="0 0 48 48" fill="none" xmlns="http://www.w3.org/2000/svg">
<g clip-path="url(#clip0_1085_1743)">
<path d="M9.57032 40.3863C9.24305 40.3863 8.94604 40.3247 8.6793 40.2014C8.41255 40.0758 8.20073 39.8954 8.04382 39.66C7.88691 39.4224 7.80845 39.1355 7.80845 38.7993C7.80845 38.5034 7.86673 38.2635 7.98329 38.0797C8.09986 37.8937 8.25564 37.748 8.45066 37.6426C8.64567 37.5373 8.86086 37.4588 9.09623 37.4073C9.33383 37.3535 9.57256 37.3109 9.81241 37.2795C10.1262 37.2392 10.3806 37.2089 10.5757 37.1887C10.7729 37.1663 10.9164 37.1293 11.006 37.0778C11.0979 37.0262 11.1439 36.9365 11.1439 36.8088V36.7819C11.1439 36.4501 11.0531 36.1923 10.8715 36.0085C10.6922 35.8247 10.4199 35.7328 10.0545 35.7328C9.67567 35.7328 9.37866 35.8158 9.16347 35.9816C8.94828 36.1475 8.79698 36.3246 8.70956 36.5129L7.9564 36.2439C8.09089 35.9301 8.27021 35.6858 8.49437 35.5109C8.72077 35.3338 8.96734 35.2105 9.23408 35.1411C9.50307 35.0693 9.76757 35.0335 10.0276 35.0335C10.1935 35.0335 10.384 35.0536 10.5992 35.094C10.8166 35.1321 11.0262 35.2117 11.2279 35.3327C11.4319 35.4538 11.6012 35.6364 11.7357 35.8808C11.8702 36.1251 11.9374 36.4524 11.9374 36.8626V40.2653H11.1439V39.5659H11.1035C11.0497 39.678 10.9601 39.7979 10.8346 39.9257C10.709 40.0534 10.542 40.1621 10.3336 40.2518C10.1251 40.3415 9.87069 40.3863 9.57032 40.3863ZM9.69136 39.6735C10.0052 39.6735 10.2697 39.6118 10.4849 39.4886C10.7023 39.3653 10.8659 39.2061 10.9758 39.0111C11.0879 38.8161 11.1439 38.611 11.1439 38.3958V37.6695C11.1103 37.7099 11.0363 37.7469 10.922 37.7805C10.8099 37.8119 10.6799 37.8399 10.5319 37.8645C10.3862 37.887 10.2439 37.9071 10.1049 37.9251C9.96819 37.9408 9.85724 37.9542 9.77206 37.9654C9.56583 37.9923 9.37306 38.036 9.19374 38.0966C9.01665 38.1548 8.87319 38.2434 8.76336 38.3622C8.65576 38.4787 8.60196 38.6379 8.60196 38.8396C8.60196 39.1153 8.70396 39.3238 8.90794 39.465C9.11416 39.604 9.3753 39.6735 9.69136 39.6735ZM15.3359 40.3729C14.9055 40.3729 14.5256 40.2641 14.1961 40.0467C13.8665 39.827 13.6088 39.5177 13.4227 39.1187C13.2367 38.7175 13.1436 38.2434 13.1436 37.6964C13.1436 37.154 13.2367 36.6832 13.4227 36.2843C13.6088 35.8853 13.8677 35.577 14.1994 35.3596C14.5312 35.1422 14.9145 35.0335 15.3493 35.0335C15.6856 35.0335 15.9512 35.0895 16.1462 35.2016C16.3435 35.3114 16.4937 35.4369 16.5968 35.5782C16.7021 35.7171 16.7839 35.8315 16.8422 35.9211H16.9095V33.3792H17.703V40.2653H16.9364V39.4717H16.8422C16.7839 39.5659 16.701 39.6847 16.5934 39.8282C16.4858 39.9694 16.3323 40.096 16.1328 40.2081C15.9333 40.3179 15.6676 40.3729 15.3359 40.3729ZM15.4435 39.66C15.7618 39.66 16.0308 39.5771 16.2504 39.4112C16.4701 39.2431 16.6371 39.0111 16.7514 38.7152C16.8657 38.4171 16.9229 38.073 16.9229 37.683C16.9229 37.2974 16.8669 36.9601 16.7548 36.6709C16.6427 36.3795 16.4768 36.1531 16.2572 35.9917C16.0375 35.8281 15.7663 35.7463 15.4435 35.7463C15.1072 35.7463 14.8271 35.8326 14.6029 36.0052C14.381 36.1755 14.214 36.4075 14.1019 36.7012C13.9921 36.9926 13.9372 37.3199 13.9372 37.683C13.9372 38.0506 13.9932 38.3846 14.1053 38.685C14.2196 38.9831 14.3877 39.2207 14.6096 39.3978C14.8338 39.5726 15.1117 39.66 15.4435 39.66ZM19.2665 40.2653V35.1007H20.0331V35.8808H20.0869C20.181 35.6252 20.3514 35.4179 20.5979 35.2587C20.8445 35.0996 21.1225 35.02 21.4318 35.02C21.4901 35.02 21.5629 35.0211 21.6504 35.0234C21.7378 35.0256 21.8039 35.029 21.8487 35.0335V35.8404C21.8218 35.8337 21.7602 35.8236 21.6638 35.8102C21.5697 35.7945 21.4699 35.7866 21.3646 35.7866C21.1135 35.7866 20.8893 35.8393 20.6921 35.9447C20.4971 36.0478 20.3424 36.1912 20.2281 36.375C20.116 36.5566 20.06 36.7639 20.06 36.9971V40.2653H19.2665ZM24.3091 40.3863C23.9819 40.3863 23.6848 40.3247 23.4181 40.2014C23.1514 40.0758 22.9395 39.8954 22.7826 39.66C22.6257 39.4224 22.5473 39.1355 22.5473 38.7993C22.5473 38.5034 22.6055 38.2635 22.7221 38.0797C22.8387 37.8937 22.9944 37.748 23.1895 37.6426C23.3845 37.5373 23.5997 37.4588 23.835 37.4073C24.0726 37.3535 24.3114 37.3109 24.5512 37.2795C24.865 37.2392 25.1194 37.2089 25.3145 37.1887C25.5117 37.1663 25.6552 37.1293 25.7448 37.0778C25.8367 37.0262 25.8827 36.9365 25.8827 36.8088V36.7819C25.8827 36.4501 25.7919 36.1923 25.6103 36.0085C25.431 35.8247 25.1587 35.7328 24.7933 35.7328C24.4145 35.7328 24.1175 35.8158 23.9023 35.9816C23.6871 36.1475 23.5358 36.3246 23.4484 36.5129L22.6952 36.2439C22.8297 35.9301 23.009 35.6858 23.2332 35.5109C23.4596 35.3338 23.7061 35.2105 23.9729 35.1411C24.2419 35.0693 24.5064 35.0335 24.7664 35.0335C24.9323 35.0335 25.1228 35.0536 25.338 35.094C25.5554 35.1321 25.765 35.2117 25.9668 35.3327C26.1707 35.4538 26.34 35.6364 26.4745 35.8808C26.609 36.1251 26.6762 36.4524 26.6762 36.8626V40.2653H25.8827V39.5659H25.8423C25.7886 39.678 25.6989 39.7979 25.5734 39.9257C25.4478 40.0534 25.2808 40.1621 25.0724 40.2518C24.8639 40.3415 24.6095 40.3863 24.3091 40.3863ZM24.4302 39.6735C24.744 39.6735 25.0085 39.6118 25.2237 39.4886C25.4411 39.3653 25.6047 39.2061 25.7146 39.0111C25.8267 38.8161 25.8827 38.611 25.8827 38.3958V37.6695C25.8491 37.7099 25.7751 37.7469 25.6608 37.7805C25.5487 37.8119 25.4187 37.8399 25.2708 37.8645C25.1251 37.887 24.9827 37.9071 24.8437 37.9251C24.707 37.9408 24.596 37.9542 24.5109 37.9654C24.3046 37.9923 24.1119 38.036 23.9325 38.0966C23.7555 38.1548 23.612 38.2434 23.5022 38.3622C23.3946 38.4787 23.3408 38.6379 23.3408 38.8396C23.3408 39.1153 23.4428 39.3238 23.6467 39.465C23.853 39.604 24.1141 39.6735 24.4302 39.6735ZM28.7029 40.3191C28.537 40.3191 28.3946 40.2597 28.2758 40.1409C28.157 40.022 28.0976 39.8797 28.0976 39.7138C28.0976 39.548 28.157 39.4056 28.2758 39.2868C28.3946 39.168 28.537 39.1086 28.7029 39.1086C28.8687 39.1086 29.0111 39.168 29.1299 39.2868C29.2487 39.4056 29.3081 39.548 29.3081 39.7138C29.3081 39.8237 29.2801 39.9245 29.224 40.0164C29.1702 40.1083 29.0974 40.1823 29.0055 40.2384C28.9158 40.2922 28.8149 40.3191 28.7029 40.3191ZM32.2518 40.3863C31.9245 40.3863 31.6275 40.3247 31.3608 40.2014C31.094 40.0758 30.8822 39.8954 30.7253 39.66C30.5684 39.4224 30.4899 39.1355 30.4899 38.7993C30.4899 38.5034 30.5482 38.2635 30.6648 38.0797C30.7813 37.8937 30.9371 37.748 31.1321 37.6426C31.3272 37.5373 31.5424 37.4588 31.7777 37.4073C32.0153 37.3535 32.254 37.3109 32.4939 37.2795C32.8077 37.2392 33.0621 37.2089 33.2571 37.1887C33.4544 37.1663 33.5979 37.1293 33.6875 37.0778C33.7794 37.0262 33.8254 36.9365 33.8254 36.8088V36.7819C33.8254 36.4501 33.7346 36.1923 33.553 36.0085C33.3737 35.8247 33.1014 35.7328 32.736 35.7328C32.3572 35.7328 32.0602 35.8158 31.845 35.9816C31.6298 36.1475 31.4785 36.3246 31.391 36.5129L30.6379 36.2439C30.7724 35.9301 30.9517 35.6858 31.1759 35.5109C31.4023 35.3338 31.6488 35.2105 31.9156 35.1411C32.1846 35.0693 32.4491 35.0335 32.7091 35.0335C32.875 35.0335 33.0655 35.0536 33.2807 35.094C33.4981 35.1321 33.7077 35.2117 33.9094 35.3327C34.1134 35.4538 34.2827 35.6364 34.4172 35.8808C34.5516 36.1251 34.6189 36.4524 34.6189 36.8626V40.2653H33.8254V39.5659H33.785C33.7312 39.678 33.6416 39.7979 33.516 39.9257C33.3905 40.0534 33.2235 40.1621 33.0151 40.2518C32.8066 40.3415 32.5522 40.3863 32.2518 40.3863ZM32.3728 39.6735C32.6867 39.6735 32.9512 39.6118 33.1664 39.4886C33.3838 39.3653 33.5474 39.2061 33.6573 39.0111C33.7693 38.8161 33.8254 38.611 33.8254 38.3958V37.6695C33.7918 37.7099 33.7178 37.7469 33.6035 37.7805C33.4914 37.8119 33.3614 37.8399 33.2134 37.8645C33.0677 37.887 32.9254 37.9071 32.7864 37.9251C32.6497 37.9408 32.5387 37.9542 32.4535 37.9654C32.2473 37.9923 32.0545 38.036 31.8752 38.0966C31.6981 38.1548 31.5547 38.2434 31.4448 38.3622C31.3372 38.4787 31.2835 38.6379 31.2835 38.8396C31.2835 39.1153 31.3854 39.3238 31.5894 39.465C31.7956 39.604 32.0568 39.6735 32.3728 39.6735ZM36.0672 40.2653V35.1007H36.8607V40.2653H36.0672ZM36.4707 34.24C36.316 34.24 36.1827 34.1873 36.0706 34.0819C35.9607 33.9766 35.9058 33.8499 35.9058 33.702C35.9058 33.554 35.9607 33.4274 36.0706 33.322C36.1827 33.2167 36.316 33.164 36.4707 33.164C36.6254 33.164 36.7576 33.2167 36.8675 33.322C36.9795 33.4274 37.0356 33.554 37.0356 33.702C37.0356 33.8499 36.9795 33.9766 36.8675 34.0819C36.7576 34.1873 36.6254 34.24 36.4707 34.24Z" fill="white"/>
<path d="M24.4691 4.99603L23.8918 5.64009C23.8918 5.64009 20.1335 9.82718 17.3369 14.7351C15.9386 17.1891 14.764 19.8239 14.4448 22.3123C14.1255 24.8007 14.7804 27.2658 17.0118 28.7685C19.1385 30.2007 21.4464 30.5879 23.6385 30.2364C25.8306 29.8849 27.9128 28.8315 29.784 27.4432C32.4732 25.4478 34.7436 22.771 36.2418 20.2572V16.1893L36.0046 16.827C35.0032 19.5201 32.1775 23.5137 28.7532 26.0545C27.0411 27.3249 25.1883 28.2372 23.3649 28.5296C21.5415 28.822 19.7538 28.5306 17.9776 27.3343C16.306 26.2086 15.8899 24.6311 16.1591 22.5326C16.4284 20.4341 17.5017 17.9388 18.8394 15.5911C20.8991 11.9764 23.5386 8.72159 24.6476 7.41089V5.13357L24.4691 4.99603Z" fill="#2EB7A6"/>
<path d="M24.6476 4.28018C24.5022 4.33761 20.3006 6.00725 16.7096 8.55601C14.8824 9.85287 13.1927 11.3663 12.2862 13.1533C11.3796 14.9403 11.4232 17.1214 13.0265 19.0025C16.1849 22.7083 21.7229 22.935 26.674 21.9411C29.1495 21.4442 31.5118 20.6313 33.4484 19.7168C34.5286 19.2066 35.4728 18.6813 36.2418 18.1326V15.8486C35.6791 16.463 34.3831 17.3635 32.7106 18.1533C30.9081 19.0045 28.6592 19.78 26.3338 20.2468C21.6829 21.1804 16.8587 20.8337 14.3425 17.8815C13.1084 16.4335 13.1467 15.2797 13.8284 13.9359C14.5101 12.5921 16.0016 11.1789 17.7107 9.96579C20.3108 8.12031 23.3407 6.72235 24.6476 6.15628V4.28018Z" fill="#66FFE9"/>
</g>
<defs>
<clipPath id="clip0_1085_1743">
<rect width="48" height="48" fill="white"/>
</clipPath>
</defs>
</svg>
