<svg width="20" height="20" viewBox="0 0 20 20" fill="none" xmlns="http://www.w3.org/2000/svg">
<path d="M18.3812 13.5438L6.46249 1.61252C6.3464 1.4963 6.20854 1.4041 6.05679 1.34119C5.90504 1.27829 5.74238 1.24591 5.57811 1.24591C5.41385 1.24591 5.25119 1.27829 5.09944 1.34119C4.94769 1.4041 4.80983 1.4963 4.69374 1.61252L1.61874 4.69377C1.38593 4.92797 1.25525 5.24479 1.25525 5.57502C1.25525 5.90525 1.38593 6.22207 1.61874 6.45627L13.5375 18.3875C13.6543 18.5034 13.7928 18.595 13.9451 18.6572C14.0974 18.7194 14.2605 18.751 14.425 18.75C14.7551 18.7503 15.0719 18.62 15.3062 18.3875L18.3812 15.3063C18.6141 15.0721 18.7447 14.7553 18.7447 14.425C18.7447 14.0948 18.6141 13.778 18.3812 13.5438ZM14.425 17.5L2.49999 5.57502L5.57499 2.50002L7.94374 4.86877L6.53749 6.25002L7.41874 7.13127L8.82499 5.75002L11.4062 8.33127L9.99999 9.73752L10.8875 10.625L12.2937 9.21877L14.875 11.8L13.4687 13.2063L14.375 14.0875L15.7812 12.6813L17.5 14.425L14.425 17.5Z" fill="current"/>
</svg>
