<svg width="122" height="65" viewBox="0 0 122 65" fill="none" xmlns="http://www.w3.org/2000/svg">
<g clip-path="url(#clip0_1867_36623)">
<path d="M62.2393 23.9464C65.7375 23.9464 68.4791 26.766 68.4791 31.4393C68.4791 36.1127 65.7375 38.9583 62.2393 38.9583C61.3931 39 60.551 38.8166 59.7987 38.4267C59.0465 38.0369 58.4111 37.4546 57.9573 36.7392V45.7723H52.8408V24.1292H57.9573V26.1657C58.4069 25.4463 59.0415 24.8608 59.7948 24.4704C60.548 24.08 61.3922 23.899 62.2393 23.9464ZM60.6208 28.4108C59.1849 28.4108 57.9576 29.4813 57.9576 31.4393C57.9576 33.4234 59.1849 34.4939 60.6208 34.4939C62.0568 34.4939 63.2836 33.3974 63.2836 31.4393C63.2836 29.4551 62.0568 28.4108 60.6208 28.4108Z" fill="#3163DA"/>
<path d="M70.5926 19.4561H75.7094V38.7755H70.5926V19.4561Z" fill="#3163DA"/>
<path d="M84.0368 23.9464C84.8884 23.8926 85.7386 24.0705 86.4972 24.4613C87.2557 24.8521 87.8942 25.4411 88.3447 26.1657V24.1293H93.4619V38.7755H88.3447V36.7392C87.8918 37.4615 87.2528 38.0487 86.4949 38.4391C85.7369 38.8296 84.8879 39.0089 84.0368 38.9584C80.5648 38.9584 77.7974 36.1126 77.7974 31.4394C77.7974 26.7662 80.5649 23.9464 84.0368 23.9464ZM85.6816 28.4108C84.2198 28.4108 83.0188 29.4552 83.0188 31.4394C83.0188 33.3975 84.2198 34.494 85.6816 34.494C87.1175 34.494 88.3447 33.4235 88.3447 31.4394C88.3447 29.4813 87.1175 28.4108 85.6816 28.4108Z" fill="#3163DA"/>
<path d="M97.1939 28.3849H95.3923V24.1293H97.1939V20.5789H102.337V24.1294H105V28.3849H102.337V33.2929C102.337 34.0763 102.677 34.4156 103.538 34.4156H105.026V38.7756H102.807C99.5696 38.7756 97.1941 37.4181 97.1941 33.2147L97.1939 28.3849Z" fill="#3163DA"/>
<path d="M114.189 38.9583C109.829 38.9583 106.539 36.1125 106.539 31.4393C106.539 26.7921 109.855 23.9463 114.215 23.9463C118.575 23.9463 121.891 26.7921 121.891 31.4393C121.891 36.1125 118.549 38.9583 114.189 38.9583ZM114.189 34.5204C115.494 34.5204 116.695 33.5544 116.695 31.4397C116.695 29.3511 115.52 28.3851 114.215 28.3851C112.909 28.3851 111.761 29.3507 111.761 31.4395C111.761 33.554 112.857 34.52 114.189 34.52V34.5204Z" fill="#3163DA"/>
<path d="M21.7461 6.54517L1.8588 13.5455C-3.18008 30.05 2.43302 51.5921 21.7461 58.7292C41.0619 51.5921 46.6722 30.0497 41.6333 13.5455L21.7461 6.54517Z" fill="#3163DA"/>
<path d="M11.5077 35.8225H31.9848C34.3279 35.8225 36.575 36.7533 38.2318 38.4101C39.8887 40.0669 40.8195 42.3141 40.8195 44.6572V60.3053H2.67346V44.6568C2.67357 42.3138 3.60436 40.0668 5.26108 38.4101C6.9178 36.7534 9.16476 35.8226 11.5077 35.8225Z" fill="#ECEEF5"/>
<path d="M28.0269 35.8225L21.7458 59.439L15.1949 35.8225H28.0269Z" fill="#FFC297"/>
<path d="M28.1622 35.8225L21.7458 42.2348L15.3302 35.8225L21.7458 59.439L28.1622 35.8225Z" fill="#DBE0ED"/>
<path d="M21.7458 42.2348L17.8469 45.0862L15.3302 35.8225L21.7458 42.2348Z" fill="#BCC1CE"/>
<path d="M21.7458 42.2348L25.6456 45.0862L28.1623 35.8225L21.7458 42.2348Z" fill="#BCC1CE"/>
<path d="M21.7458 42.2349L19.3276 44.0034L20.727 46.4266H21.7458V42.2349Z" fill="#3163DA"/>
<path d="M20.727 46.4265L19.3973 53.5057L21.7458 59.439V46.4265H20.727Z" fill="#3163DA"/>
<path d="M15.3303 35.8225L11.4953 41.9543L15.6231 42.0404L13.0654 44.5079L21.7458 59.439L15.3303 35.8225Z" fill="white"/>
<path d="M21.7458 42.2349L24.1649 44.0034L22.7655 46.4266H21.7458V42.2349Z" fill="#3163DA"/>
<path d="M22.7655 46.4265L24.0952 53.5057L21.7458 59.439V46.4265H22.7655Z" fill="#3163DA"/>
<path d="M28.1623 35.8225L31.9972 41.9543L27.8694 42.0404L30.4271 44.5079L21.7458 59.439L28.1623 35.8225Z" fill="white"/>
<path d="M26.7875 13.8498C28.4747 12.9223 28.9515 14.9235 28.9515 14.9235C28.9515 14.9235 27.7151 15.537 26.7875 13.8498Z" fill="#00BF95"/>
<path d="M30.173 16.8967V16.8956C29.7843 17.0485 29.3525 17.051 28.9621 16.9025C28.5716 16.754 28.2506 16.4653 28.0618 16.0927C28.1944 15.9718 28.3526 15.8825 28.5246 15.8313C28.6966 15.7802 28.8779 15.7686 29.055 15.7973C29.2321 15.8261 29.4004 15.8945 29.5474 15.9974C29.6944 16.1003 29.8162 16.2351 29.9038 16.3917C29.7353 16.0432 29.66 15.6569 29.6855 15.2707C29.7109 14.8844 29.836 14.5114 30.0488 14.188C32.1479 16.0841 30.1731 16.8967 30.1731 16.8967H30.173Z" fill="#00BF95"/>
<path d="M30.8967 19.2552C30.4541 19.3046 30.0093 19.1837 29.6526 18.9171C29.2959 18.6505 29.054 18.2581 28.976 17.8197C29.1415 17.7338 29.3236 17.6848 29.5098 17.6758C29.696 17.6669 29.882 17.6983 30.0549 17.7679C30.2279 17.8376 30.3837 17.9437 30.5118 18.0792C30.6399 18.2147 30.7372 18.3762 30.7971 18.5528C30.7697 18.1861 30.8319 17.8183 30.9782 17.4809C31.1246 17.1436 31.3506 16.8468 31.637 16.6162C33.0652 19.043 30.9335 19.2517 30.897 19.2551L30.8967 19.2552Z" fill="#00BF95"/>
<path d="M29.2549 19.6907C29.4426 19.6672 29.6331 19.685 29.8132 19.743C29.9932 19.8009 30.1584 19.8977 30.2971 20.0263C30.4357 20.155 30.5445 20.3125 30.6158 20.4877C30.687 20.6629 30.719 20.8516 30.7095 21.0406C30.8573 20.6729 31.0933 20.3473 31.3967 20.0925C31.7 19.8376 32.0615 19.6614 32.4491 19.5793C32.6111 22.5242 30.4918 21.6734 30.4918 21.6734V21.6723C30.0816 21.5463 29.7307 21.2765 29.5035 20.9125C29.2763 20.5485 29.188 20.1147 29.2549 19.6908V19.6907Z" fill="#00BF95"/>
<path d="M16.7049 13.8498C15.0178 12.9223 14.541 14.9235 14.541 14.9235C14.541 14.9235 15.7773 15.537 16.7049 13.8498Z" fill="#00BF95"/>
<path d="M13.3195 16.8967V16.8956C13.7082 17.0485 14.14 17.051 14.5304 16.9025C14.9209 16.754 15.2419 16.4653 15.4307 16.0927C15.2981 15.9718 15.1399 15.8825 14.9679 15.8313C14.7959 15.7802 14.6146 15.7686 14.4375 15.7973C14.2603 15.8261 14.092 15.8944 13.945 15.9974C13.798 16.1003 13.6762 16.2351 13.5886 16.3917C13.7571 16.0432 13.8324 15.6569 13.807 15.2707C13.7816 14.8844 13.6564 14.5114 13.4436 14.188C11.3446 16.0841 13.3194 16.8967 13.3194 16.8967H13.3195Z" fill="#00BF95"/>
<path d="M12.5958 19.2552C13.0384 19.3046 13.4832 19.1837 13.8399 18.9171C14.1966 18.6505 14.4385 18.2581 14.5165 17.8197C14.351 17.7338 14.1689 17.6848 13.9827 17.6758C13.7965 17.6669 13.6105 17.6983 13.4376 17.7679C13.2646 17.8376 13.1088 17.9437 12.9807 18.0792C12.8526 18.2147 12.7553 18.3762 12.6954 18.5528C12.7227 18.1861 12.6606 17.8183 12.5142 17.4809C12.3679 17.1436 12.1418 16.8468 11.8554 16.6162C10.4273 19.043 12.559 19.2517 12.5955 19.2551L12.5958 19.2552Z" fill="#00BF95"/>
<path d="M14.2373 19.6907C14.0496 19.6672 13.859 19.685 13.679 19.743C13.4989 19.8009 13.3337 19.8977 13.1951 20.0263C13.0564 20.155 12.9476 20.3125 12.8764 20.4877C12.8051 20.6629 12.7731 20.8516 12.7826 21.0406C12.6349 20.6729 12.3989 20.3473 12.0955 20.0925C11.7921 19.8376 11.4306 19.6614 11.043 19.5793C10.8811 22.5242 13.0003 21.6723 13.0003 21.6723C13.4105 21.5463 13.7614 21.2765 13.9887 20.9125C14.216 20.5485 14.3042 20.1147 14.2374 19.6908L14.2373 19.6907Z" fill="#00BF95"/>
<path d="M21.7462 13.2092H21.7462C16.8692 13.2092 12.9156 17.1628 12.9156 22.0398V27.9969C12.9156 32.8739 16.8692 36.8275 21.7462 36.8275H21.7462C26.6232 36.8275 30.5768 32.8739 30.5768 27.9969V22.0398C30.5768 17.1628 26.6232 13.2092 21.7462 13.2092Z" fill="#FFC297"/>
<path d="M30.9611 22.002C31.3997 22.002 31.8203 22.1762 32.1305 22.4863C32.4406 22.7965 32.6149 23.2171 32.6149 23.6557V23.8959C32.6149 24.1131 32.5721 24.3281 32.489 24.5288C32.4059 24.7295 32.2841 24.9118 32.1306 25.0654C31.977 25.219 31.7947 25.3408 31.594 25.4239C31.3934 25.5071 31.1783 25.5498 30.9611 25.5498V22.002Z" fill="#FFC297"/>
<path d="M12.5314 25.5496C12.0928 25.5496 11.6721 25.3753 11.362 25.0652C11.0519 24.7551 10.8776 24.3344 10.8776 23.8958V23.6556C10.8776 23.217 11.0519 22.7964 11.362 22.4863C11.6721 22.1761 12.0928 22.0019 12.5314 22.0019V25.5496Z" fill="#FFC297"/>
<path d="M20.8891 16.1074C21.8494 15.8582 23.3207 15.2151 23.4766 13.603V13.3838C22.8991 13.2675 22.3114 13.209 21.7222 13.2092C21.3106 13.2093 20.8994 13.238 20.4918 13.295C20.8025 14.0659 20.8291 14.9222 20.5668 15.7109C20.5428 15.7592 20.5332 15.8133 20.5392 15.8668C20.5451 15.9204 20.5664 15.9711 20.6004 16.0129C20.6343 16.0547 20.6796 16.0858 20.7308 16.1026C20.782 16.1194 20.837 16.1211 20.8891 16.1074Z" fill="white"/>
<path d="M28.6643 21.7578C28.5949 23.5455 27.836 25.2368 26.5468 26.4771C25.2575 27.7174 23.5381 28.4103 21.7491 28.4105C19.96 28.4104 18.2405 27.7176 16.9512 26.4773C15.6618 25.2369 14.9029 23.5455 14.8335 21.7578H12.485V29.8735C12.485 32.3297 13.4607 34.6853 15.1976 36.4222C16.9344 38.159 19.29 39.1347 21.7462 39.1347C24.2025 39.1347 26.5581 38.159 28.2949 36.4222C30.0317 34.6853 31.0075 32.3297 31.0075 29.8735V21.7578H28.6643Z" fill="white"/>
<path d="M13.6408 20.6772H13.6667C13.9733 20.6772 14.2673 20.799 14.484 21.0158C14.7008 21.2325 14.8225 21.5265 14.8225 21.8331V29.0863H12.4847V21.8331C12.4847 21.6813 12.5146 21.531 12.5727 21.3907C12.6308 21.2505 12.7159 21.123 12.8233 21.0157C12.9307 20.9083 13.0581 20.8232 13.1984 20.7651C13.3387 20.7071 13.489 20.6772 13.6408 20.6772Z" fill="white"/>
<path d="M29.8257 20.6772H29.8516C30.1581 20.6772 30.4521 20.799 30.6689 21.0158C30.8856 21.2325 31.0074 21.5265 31.0074 21.8331V29.0863H28.6695V21.8331C28.6695 21.6813 28.6994 21.531 28.7575 21.3907C28.8156 21.2505 28.9008 21.123 29.0081 21.0157C29.1155 20.9083 29.243 20.8232 29.3832 20.7651C29.5235 20.7071 29.6738 20.6772 29.8257 20.6772Z" fill="white"/>
<path d="M23.1988 29.8108C23.0558 30.0667 22.8439 30.2774 22.5871 30.4188C22.3303 30.5603 22.039 30.6269 21.7462 30.611V30.611C21.4535 30.6269 21.1622 30.5603 20.9054 30.4188C20.6486 30.2774 20.4366 30.0667 20.2936 29.8108" stroke="#3163DA" stroke-width="0.8158" stroke-linecap="round" stroke-linejoin="round"/>
<path d="M25.1451 21.7359C25.5112 21.7359 25.8081 21.439 25.8081 21.0729C25.8081 20.7067 25.5112 20.4099 25.1451 20.4099C24.7789 20.4099 24.4821 20.7067 24.4821 21.0729C24.4821 21.439 24.7789 21.7359 25.1451 21.7359Z" fill="#3163DA"/>
<path d="M18.3473 21.7359C18.7135 21.7359 19.0103 21.439 19.0103 21.0729C19.0103 20.7067 18.7135 20.4099 18.3473 20.4099C17.9812 20.4099 17.6844 20.7067 17.6844 21.0729C17.6844 21.439 17.9812 21.7359 18.3473 21.7359Z" fill="#3163DA"/>
<path d="M22.2566 20.7722L20.8432 25.9543C20.7996 26.1115 20.8135 26.2792 20.8825 26.427C20.9515 26.5749 21.071 26.6932 21.2195 26.7608V26.7608C21.5878 26.9281 22.0026 26.9631 22.3937 26.8599L22.6742 26.786" stroke="#3163DC" stroke-width="0.8158" stroke-linecap="round" stroke-linejoin="round"/>
</g>
<defs>
<clipPath id="clip0_1867_36623">
<rect width="121.781" height="64" fill="white" transform="translate(0.109497 0.637207)"/>
</clipPath>
</defs>
</svg>
