<svg width="408" height="24" viewBox="0 0 408 24" fill="none" xmlns="http://www.w3.org/2000/svg">
<path d="M0 4C0 1.79086 1.79086 0 4 0H404C406.209 0 408 1.79086 408 4V24H0V4Z" fill="#A6B5CA"/>
<path d="M20.3089 16.5L21.7408 7.77273H22.7635L21.3317 16.5H20.3089ZM16.3587 14.1648L16.5249 13.142H23.1385L22.9723 14.1648H16.3587ZM17.2408 16.5L18.6726 7.77273H19.6953L18.2635 16.5H17.2408ZM16.8658 11.1307L17.032 10.108H23.6456L23.4794 11.1307H16.8658Z" fill="black"/>
<path d="M57.9959 16.5V7.77273H61.1067C61.7857 7.77273 62.3482 7.89631 62.7942 8.14347C63.2402 8.39062 63.574 8.72869 63.7956 9.15767C64.0172 9.58381 64.128 10.0639 64.128 10.598C64.128 11.1349 64.0158 11.6179 63.7914 12.0469C63.5698 12.473 63.2346 12.8111 62.7857 13.0611C62.3397 13.3082 61.7786 13.4318 61.1025 13.4318H58.9632V12.3153H60.9831C61.4121 12.3153 61.7601 12.2415 62.0272 12.0938C62.2942 11.9432 62.4902 11.7386 62.6152 11.4801C62.7402 11.2216 62.8027 10.9276 62.8027 10.598C62.8027 10.2685 62.7402 9.97585 62.6152 9.72017C62.4902 9.46449 62.2928 9.2642 62.0229 9.11932C61.7559 8.97443 61.4036 8.90199 60.9661 8.90199H59.3127V16.5H57.9959ZM67.4157 16.6449C67.0009 16.6449 66.6259 16.5682 66.2907 16.4148C65.9554 16.2585 65.6898 16.0327 65.4938 15.7372C65.3006 15.4418 65.204 15.0795 65.204 14.6506C65.204 14.2812 65.275 13.9773 65.4171 13.7386C65.5591 13.5 65.7509 13.3111 65.9924 13.1719C66.2338 13.0327 66.5037 12.9276 66.802 12.8565C67.1003 12.7855 67.4043 12.7315 67.714 12.6946C68.106 12.6491 68.4242 12.6122 68.6685 12.5838C68.9128 12.5526 69.0904 12.5028 69.2012 12.4347C69.312 12.3665 69.3674 12.2557 69.3674 12.1023V12.0724C69.3674 11.7003 69.2623 11.4119 69.052 11.2074C68.8446 11.0028 68.535 10.9006 68.123 10.9006C67.6941 10.9006 67.356 10.9957 67.1088 11.1861C66.8645 11.3736 66.6955 11.5824 66.6017 11.8125L65.4043 11.5398C65.5463 11.142 65.7537 10.821 66.0265 10.5767C66.302 10.3295 66.6188 10.1506 66.9767 10.0398C67.3347 9.92614 67.7111 9.86932 68.106 9.86932C68.3674 9.86932 68.6444 9.90057 68.937 9.96307C69.2324 10.0227 69.508 10.1335 69.7637 10.2955C70.0222 10.4574 70.2338 10.6889 70.3986 10.9901C70.5634 11.2884 70.6458 11.6761 70.6458 12.1534V16.5H69.4015V15.6051H69.3503C69.2679 15.7699 69.1444 15.9318 68.9796 16.0909C68.8148 16.25 68.6032 16.3821 68.3446 16.4872C68.0861 16.5923 67.7765 16.6449 67.4157 16.6449ZM67.6926 15.6222C68.0449 15.6222 68.3461 15.5526 68.5961 15.4134C68.8489 15.2741 69.0407 15.0923 69.1713 14.8679C69.3049 14.6406 69.3716 14.3977 69.3716 14.1392V13.2955C69.3262 13.3409 69.2381 13.3835 69.1074 13.4233C68.9796 13.4602 68.8333 13.4929 68.6685 13.5213C68.5037 13.5469 68.3432 13.571 68.187 13.5938C68.0307 13.6136 67.9 13.6307 67.7949 13.6449C67.5478 13.6761 67.3219 13.7287 67.1174 13.8026C66.9157 13.8764 66.7537 13.983 66.6316 14.1222C66.5123 14.2585 66.4526 14.4403 66.4526 14.6676C66.4526 14.983 66.5691 15.2216 66.802 15.3835C67.035 15.5426 67.3319 15.6222 67.6926 15.6222ZM75.3983 9.95455V10.9773H71.823V9.95455H75.3983ZM72.7818 8.38636H74.0559V14.5781C74.0559 14.8253 74.0929 15.0114 74.1667 15.1364C74.2406 15.2585 74.3358 15.3423 74.4522 15.3878C74.5716 15.4304 74.7008 15.4517 74.84 15.4517C74.9423 15.4517 75.0318 15.4446 75.1085 15.4304C75.1852 15.4162 75.2449 15.4048 75.2875 15.3963L75.5176 16.4489C75.4437 16.4773 75.3386 16.5057 75.2022 16.5341C75.0659 16.5653 74.8954 16.5824 74.6909 16.5852C74.3556 16.5909 74.0431 16.5312 73.7534 16.4062C73.4636 16.2812 73.2292 16.0881 73.0502 15.8267C72.8713 15.5653 72.7818 15.2372 72.7818 14.8423V8.38636ZM78.2225 12.6136V16.5H76.9483V7.77273H78.2054V11.0199H78.2864C78.4398 10.6676 78.6742 10.3878 78.9895 10.1804C79.3049 9.97301 79.7168 9.86932 80.2253 9.86932C80.6742 9.86932 81.0662 9.96165 81.4015 10.1463C81.7395 10.331 82.0009 10.6065 82.1855 10.973C82.373 11.3366 82.4668 11.7912 82.4668 12.3366V16.5H81.1926V12.4901C81.1926 12.0099 81.0691 11.6378 80.8219 11.3736C80.5748 11.1065 80.231 10.973 79.7907 10.973C79.4895 10.973 79.2196 11.0369 78.981 11.1648C78.7452 11.2926 78.5591 11.4801 78.4228 11.7273C78.2892 11.9716 78.2225 12.267 78.2225 12.6136ZM86.9242 16.6321C86.3105 16.6321 85.775 16.4915 85.3176 16.2102C84.8603 15.929 84.5051 15.5355 84.2523 15.0298C83.9995 14.5241 83.873 13.9332 83.873 13.2571C83.873 12.5781 83.9995 11.9844 84.2523 11.4759C84.5051 10.9673 84.8603 10.5724 85.3176 10.2912C85.775 10.0099 86.3105 9.86932 86.9242 9.86932C87.5378 9.86932 88.0733 10.0099 88.5307 10.2912C88.9881 10.5724 89.3432 10.9673 89.5961 11.4759C89.8489 11.9844 89.9753 12.5781 89.9753 13.2571C89.9753 13.9332 89.8489 14.5241 89.5961 15.0298C89.3432 15.5355 88.9881 15.929 88.5307 16.2102C88.0733 16.4915 87.5378 16.6321 86.9242 16.6321ZM86.9284 15.5625C87.3262 15.5625 87.6557 15.4574 87.9171 15.2472C88.1784 15.0369 88.3716 14.7571 88.4966 14.4077C88.6245 14.0582 88.6884 13.6733 88.6884 13.2528C88.6884 12.8352 88.6245 12.4517 88.4966 12.1023C88.3716 11.75 88.1784 11.4673 87.9171 11.2543C87.6557 11.0412 87.3262 10.9347 86.9284 10.9347C86.5279 10.9347 86.1955 11.0412 85.9313 11.2543C85.6699 11.4673 85.4753 11.75 85.3475 12.1023C85.2225 12.4517 85.16 12.8352 85.16 13.2528C85.16 13.6733 85.2225 14.0582 85.3475 14.4077C85.4753 14.7571 85.6699 15.0369 85.9313 15.2472C86.1955 15.4574 86.5279 15.5625 86.9284 15.5625ZM92.6717 7.77273V16.5H91.3975V7.77273H92.6717ZM97.1429 16.6321C96.5293 16.6321 95.9938 16.4915 95.5364 16.2102C95.079 15.929 94.7239 15.5355 94.4711 15.0298C94.2182 14.5241 94.0918 13.9332 94.0918 13.2571C94.0918 12.5781 94.2182 11.9844 94.4711 11.4759C94.7239 10.9673 95.079 10.5724 95.5364 10.2912C95.9938 10.0099 96.5293 9.86932 97.1429 9.86932C97.7566 9.86932 98.2921 10.0099 98.7495 10.2912C99.2069 10.5724 99.562 10.9673 99.8148 11.4759C100.068 11.9844 100.194 12.5781 100.194 13.2571C100.194 13.9332 100.068 14.5241 99.8148 15.0298C99.562 15.5355 99.2069 15.929 98.7495 16.2102C98.2921 16.4915 97.7566 16.6321 97.1429 16.6321ZM97.1472 15.5625C97.5449 15.5625 97.8745 15.4574 98.1358 15.2472C98.3972 15.0369 98.5904 14.7571 98.7154 14.4077C98.8432 14.0582 98.9071 13.6733 98.9071 13.2528C98.9071 12.8352 98.8432 12.4517 98.7154 12.1023C98.5904 11.75 98.3972 11.4673 98.1358 11.2543C97.8745 11.0412 97.5449 10.9347 97.1472 10.9347C96.7466 10.9347 96.4142 11.0412 96.15 11.2543C95.8887 11.4673 95.6941 11.75 95.5662 12.1023C95.4412 12.4517 95.3787 12.8352 95.3787 13.2528C95.3787 13.6733 95.4412 14.0582 95.5662 14.4077C95.6941 14.7571 95.8887 15.0369 96.15 15.2472C96.4142 15.4574 96.7466 15.5625 97.1472 15.5625ZM104.361 19.0909C103.841 19.0909 103.393 19.0227 103.018 18.8864C102.646 18.75 102.342 18.5696 102.106 18.3452C101.871 18.1207 101.694 17.875 101.578 17.608L102.673 17.1562C102.75 17.2812 102.852 17.4134 102.98 17.5526C103.111 17.6946 103.287 17.8153 103.508 17.9148C103.733 18.0142 104.021 18.0639 104.373 18.0639C104.856 18.0639 105.256 17.946 105.571 17.7102C105.886 17.4773 106.044 17.1051 106.044 16.5938V15.3068H105.963C105.886 15.446 105.775 15.6009 105.631 15.7713C105.488 15.9418 105.292 16.0895 105.042 16.2145C104.792 16.3395 104.467 16.402 104.067 16.402C103.55 16.402 103.084 16.2812 102.669 16.0398C102.257 15.7955 101.93 15.4361 101.689 14.9616C101.45 14.4844 101.331 13.8977 101.331 13.2017C101.331 12.5057 101.449 11.9091 101.684 11.4119C101.923 10.9148 102.25 10.5341 102.665 10.2699C103.079 10.0028 103.55 9.86932 104.075 9.86932C104.481 9.86932 104.809 9.9375 105.059 10.0739C105.309 10.2074 105.504 10.3636 105.643 10.5426C105.785 10.7216 105.895 10.8793 105.971 11.0156H106.065V9.95455H107.314V16.6449C107.314 17.2074 107.183 17.669 106.922 18.0298C106.66 18.3906 106.307 18.6577 105.861 18.831C105.417 19.0043 104.917 19.0909 104.361 19.0909ZM104.348 15.3452C104.714 15.3452 105.024 15.2599 105.277 15.0895C105.532 14.9162 105.726 14.669 105.856 14.348C105.99 14.0241 106.057 13.6364 106.057 13.1847C106.057 12.7443 105.991 12.3565 105.861 12.0213C105.73 11.6861 105.538 11.4247 105.285 11.2372C105.032 11.0469 104.72 10.9517 104.348 10.9517C103.964 10.9517 103.645 11.0511 103.389 11.25C103.133 11.446 102.94 11.7131 102.809 12.0511C102.682 12.3892 102.618 12.767 102.618 13.1847C102.618 13.6136 102.683 13.9901 102.814 14.3139C102.944 14.6378 103.138 14.8906 103.393 15.0724C103.652 15.2543 103.97 15.3452 104.348 15.3452ZM109.828 18.9545C109.638 18.9545 109.464 18.9389 109.308 18.9077C109.152 18.8793 109.035 18.848 108.959 18.8139L109.265 17.7699C109.498 17.8324 109.706 17.8594 109.888 17.8509C110.069 17.8423 110.23 17.7741 110.369 17.6463C110.511 17.5185 110.636 17.3097 110.744 17.0199L110.902 16.5852L108.507 9.95455H109.871L111.528 15.0341H111.596L113.254 9.95455H114.622L111.925 17.3736C111.8 17.7145 111.64 18.0028 111.447 18.2386C111.254 18.4773 111.024 18.6563 110.757 18.7756C110.49 18.8949 110.18 18.9545 109.828 18.9545Z" fill="black"/>
<path d="M164.962 8.90625V7.77273H171.716V8.90625H168.993V16.5H167.681V8.90625H164.962ZM172.427 16.5V9.95455H173.658V10.9943H173.727C173.846 10.642 174.056 10.3651 174.357 10.1634C174.661 9.95881 175.005 9.85653 175.388 9.85653C175.468 9.85653 175.562 9.85937 175.67 9.86506C175.781 9.87074 175.867 9.87784 175.93 9.88636V11.1051C175.879 11.0909 175.788 11.0753 175.657 11.0582C175.526 11.0384 175.396 11.0284 175.265 11.0284C174.964 11.0284 174.695 11.0923 174.46 11.2202C174.227 11.3452 174.042 11.5199 173.906 11.7443C173.769 11.9659 173.701 12.2187 173.701 12.5028V16.5H172.427ZM179.619 16.6321C178.974 16.6321 178.419 16.4943 177.953 16.2188C177.49 15.9403 177.132 15.5497 176.879 15.0469C176.629 14.5412 176.504 13.9489 176.504 13.2699C176.504 12.5994 176.629 12.0085 176.879 11.4972C177.132 10.9858 177.484 10.5866 177.936 10.2997C178.39 10.0128 178.922 9.86932 179.529 9.86932C179.899 9.86932 180.257 9.9304 180.603 10.0526C180.95 10.1747 181.261 10.3665 181.537 10.6278C181.812 10.8892 182.029 11.2287 182.189 11.6463C182.348 12.0611 182.427 12.5653 182.427 13.1591V13.6108H177.224V12.6562H181.179C181.179 12.321 181.11 12.0241 180.974 11.7656C180.838 11.5043 180.646 11.2983 180.399 11.1477C180.154 10.9972 179.868 10.9219 179.538 10.9219C179.18 10.9219 178.868 11.0099 178.6 11.1861C178.336 11.3594 178.132 11.5866 177.987 11.8679C177.845 12.1463 177.774 12.4489 177.774 12.7756V13.5213C177.774 13.9588 177.85 14.331 178.004 14.6378C178.16 14.9446 178.377 15.179 178.656 15.3409C178.934 15.5 179.26 15.5795 179.632 15.5795C179.873 15.5795 180.093 15.5455 180.292 15.4773C180.491 15.4062 180.663 15.3011 180.808 15.1619C180.953 15.0227 181.064 14.8509 181.14 14.6463L182.346 14.8636C182.25 15.2187 182.076 15.5298 181.826 15.7969C181.579 16.0611 181.268 16.267 180.893 16.4148C180.521 16.5597 180.096 16.6321 179.619 16.6321ZM185.746 16.6449C185.331 16.6449 184.956 16.5682 184.621 16.4148C184.286 16.2585 184.02 16.0327 183.824 15.7372C183.631 15.4418 183.534 15.0795 183.534 14.6506C183.534 14.2812 183.605 13.9773 183.747 13.7386C183.889 13.5 184.081 13.3111 184.322 13.1719C184.564 13.0327 184.834 12.9276 185.132 12.8565C185.43 12.7855 185.734 12.7315 186.044 12.6946C186.436 12.6491 186.754 12.6122 186.999 12.5838C187.243 12.5526 187.42 12.5028 187.531 12.4347C187.642 12.3665 187.697 12.2557 187.697 12.1023V12.0724C187.697 11.7003 187.592 11.4119 187.382 11.2074C187.175 11.0028 186.865 10.9006 186.453 10.9006C186.024 10.9006 185.686 10.9957 185.439 11.1861C185.195 11.3736 185.026 11.5824 184.932 11.8125L183.734 11.5398C183.876 11.142 184.084 10.821 184.357 10.5767C184.632 10.3295 184.949 10.1506 185.307 10.0398C185.665 9.92614 186.041 9.86932 186.436 9.86932C186.697 9.86932 186.974 9.90057 187.267 9.96307C187.563 10.0227 187.838 10.1335 188.094 10.2955C188.352 10.4574 188.564 10.6889 188.729 10.9901C188.893 11.2884 188.976 11.6761 188.976 12.1534V16.5H187.732V15.6051H187.68C187.598 15.7699 187.474 15.9318 187.31 16.0909C187.145 16.25 186.933 16.3821 186.675 16.4872C186.416 16.5923 186.107 16.6449 185.746 16.6449ZM186.023 15.6222C186.375 15.6222 186.676 15.5526 186.926 15.4134C187.179 15.2741 187.371 15.0923 187.501 14.8679C187.635 14.6406 187.702 14.3977 187.702 14.1392V13.2955C187.656 13.3409 187.568 13.3835 187.438 13.4233C187.31 13.4602 187.163 13.4929 186.999 13.5213C186.834 13.5469 186.673 13.571 186.517 13.5938C186.361 13.6136 186.23 13.6307 186.125 13.6449C185.878 13.6761 185.652 13.7287 185.447 13.8026C185.246 13.8764 185.084 13.983 184.962 14.1222C184.842 14.2585 184.783 14.4403 184.783 14.6676C184.783 14.983 184.899 15.2216 185.132 15.3835C185.365 15.5426 185.662 15.6222 186.023 15.6222ZM193.728 9.95455V10.9773H190.153V9.95455H193.728ZM191.112 8.38636H192.386V14.5781C192.386 14.8253 192.423 15.0114 192.497 15.1364C192.571 15.2585 192.666 15.3423 192.782 15.3878C192.902 15.4304 193.031 15.4517 193.17 15.4517C193.272 15.4517 193.362 15.4446 193.439 15.4304C193.515 15.4162 193.575 15.4048 193.618 15.3963L193.848 16.4489C193.774 16.4773 193.669 16.5057 193.532 16.5341C193.396 16.5653 193.225 16.5824 193.021 16.5852C192.686 16.5909 192.373 16.5312 192.083 16.4062C191.794 16.2812 191.559 16.0881 191.38 15.8267C191.201 15.5653 191.112 15.2372 191.112 14.8423V8.38636ZM195.138 16.5V9.95455H196.361V11.0199H196.442C196.578 10.6591 196.801 10.3778 197.111 10.1761C197.42 9.97159 197.791 9.86932 198.223 9.86932C198.661 9.86932 199.027 9.97159 199.322 10.1761C199.621 10.3807 199.841 10.6619 199.983 11.0199H200.051C200.207 10.6705 200.456 10.392 200.797 10.1847C201.138 9.97443 201.544 9.86932 202.016 9.86932C202.609 9.86932 203.094 10.0554 203.469 10.4276C203.847 10.7997 204.036 11.3608 204.036 12.1108V16.5H202.761V12.2301C202.761 11.7869 202.641 11.4659 202.399 11.267C202.158 11.0682 201.869 10.9688 201.534 10.9688C201.119 10.9688 200.797 11.0966 200.567 11.3523C200.337 11.6051 200.222 11.9304 200.222 12.3281V16.5H198.952V12.1491C198.952 11.794 198.841 11.5085 198.619 11.2926C198.398 11.0767 198.109 10.9688 197.754 10.9688C197.513 10.9688 197.29 11.0327 197.085 11.1605C196.884 11.2855 196.72 11.4602 196.595 11.6847C196.473 11.9091 196.412 12.169 196.412 12.4645V16.5H195.138ZM208.564 16.6321C207.919 16.6321 207.364 16.4943 206.898 16.2188C206.435 15.9403 206.077 15.5497 205.824 15.0469C205.574 14.5412 205.449 13.9489 205.449 13.2699C205.449 12.5994 205.574 12.0085 205.824 11.4972C206.077 10.9858 206.429 10.5866 206.881 10.2997C207.336 10.0128 207.867 9.86932 208.475 9.86932C208.844 9.86932 209.202 9.9304 209.549 10.0526C209.895 10.1747 210.206 10.3665 210.482 10.6278C210.757 10.8892 210.975 11.2287 211.134 11.6463C211.293 12.0611 211.373 12.5653 211.373 13.1591V13.6108H206.169V12.6562H210.124C210.124 12.321 210.056 12.0241 209.919 11.7656C209.783 11.5043 209.591 11.2983 209.344 11.1477C209.1 10.9972 208.813 10.9219 208.483 10.9219C208.125 10.9219 207.813 11.0099 207.546 11.1861C207.282 11.3594 207.077 11.5866 206.932 11.8679C206.79 12.1463 206.719 12.4489 206.719 12.7756V13.5213C206.719 13.9588 206.796 14.331 206.949 14.6378C207.105 14.9446 207.323 15.179 207.601 15.3409C207.88 15.5 208.205 15.5795 208.577 15.5795C208.819 15.5795 209.039 15.5455 209.238 15.4773C209.436 15.4062 209.608 15.3011 209.753 15.1619C209.898 15.0227 210.009 14.8509 210.086 14.6463L211.292 14.8636C211.195 15.2187 211.022 15.5298 210.772 15.7969C210.525 16.0611 210.213 16.267 209.838 16.4148C209.466 16.5597 209.042 16.6321 208.564 16.6321ZM214.06 12.6136V16.5H212.786V9.95455H214.009V11.0199H214.09C214.241 10.6733 214.477 10.3949 214.798 10.1847C215.121 9.97443 215.529 9.86932 216.021 9.86932C216.467 9.86932 216.857 9.96307 217.192 10.1506C217.528 10.3352 217.788 10.6108 217.972 10.9773C218.157 11.3437 218.249 11.7969 218.249 12.3366V16.5H216.975V12.4901C216.975 12.0156 216.852 11.6449 216.604 11.3778C216.357 11.108 216.018 10.973 215.586 10.973C215.29 10.973 215.028 11.0369 214.798 11.1648C214.57 11.2926 214.39 11.4801 214.256 11.7273C214.126 11.9716 214.06 12.267 214.06 12.6136ZM223.013 9.95455V10.9773H219.438V9.95455H223.013ZM220.397 8.38636H221.671V14.5781C221.671 14.8253 221.708 15.0114 221.782 15.1364C221.856 15.2585 221.951 15.3423 222.067 15.3878C222.187 15.4304 222.316 15.4517 222.455 15.4517C222.558 15.4517 222.647 15.4446 222.724 15.4304C222.8 15.4162 222.86 15.4048 222.903 15.3963L223.133 16.4489C223.059 16.4773 222.954 16.5057 222.817 16.5341C222.681 16.5653 222.511 16.5824 222.306 16.5852C221.971 16.5909 221.658 16.5312 221.369 16.4062C221.079 16.2812 220.844 16.0881 220.665 15.8267C220.487 15.5653 220.397 15.2372 220.397 14.8423V8.38636Z" fill="black"/>
<path d="M299.191 10.0653C299.146 9.66193 298.958 9.34943 298.629 9.12784C298.299 8.90341 297.885 8.79119 297.385 8.79119C297.027 8.79119 296.717 8.84801 296.456 8.96165C296.194 9.07244 295.991 9.22585 295.846 9.42188C295.704 9.61506 295.633 9.83523 295.633 10.0824C295.633 10.2898 295.681 10.4687 295.778 10.6193C295.877 10.7699 296.007 10.8963 296.166 10.9986C296.328 11.098 296.501 11.1818 296.686 11.25C296.87 11.3153 297.048 11.3693 297.218 11.4119L298.071 11.6335C298.349 11.7017 298.635 11.794 298.927 11.9105C299.22 12.027 299.491 12.1804 299.741 12.3707C299.991 12.5611 300.193 12.7969 300.346 13.0781C300.502 13.3594 300.581 13.696 300.581 14.0881C300.581 14.5824 300.453 15.0213 300.197 15.4048C299.944 15.7884 299.576 16.0909 299.093 16.3125C298.613 16.5341 298.032 16.6449 297.35 16.6449C296.697 16.6449 296.132 16.5412 295.654 16.3338C295.177 16.1264 294.804 15.8324 294.534 15.4517C294.264 15.0682 294.115 14.6136 294.086 14.0881H295.407C295.433 14.4034 295.535 14.6662 295.714 14.8764C295.896 15.0838 296.127 15.2386 296.409 15.3409C296.693 15.4403 297.004 15.4901 297.342 15.4901C297.714 15.4901 298.045 15.4318 298.335 15.3153C298.627 15.196 298.858 15.0312 299.025 14.821C299.193 14.608 299.277 14.3594 299.277 14.0753C299.277 13.8168 299.203 13.6051 299.055 13.4403C298.91 13.2756 298.713 13.1392 298.463 13.0312C298.216 12.9233 297.936 12.8281 297.623 12.7457L296.592 12.4645C295.893 12.2741 295.339 11.9943 294.93 11.625C294.524 11.2557 294.321 10.767 294.321 10.1591C294.321 9.65625 294.457 9.21733 294.73 8.84233C295.002 8.46733 295.372 8.17614 295.838 7.96875C296.304 7.75852 296.829 7.65341 297.414 7.65341C298.005 7.65341 298.527 7.7571 298.978 7.96449C299.433 8.17188 299.791 8.45739 300.052 8.82102C300.314 9.18182 300.45 9.59659 300.461 10.0653H299.191ZM305.107 9.95455V10.9773H301.532V9.95455H305.107ZM302.491 8.38636H303.765V14.5781C303.765 14.8253 303.802 15.0114 303.876 15.1364C303.95 15.2585 304.045 15.3423 304.161 15.3878C304.281 15.4304 304.41 15.4517 304.549 15.4517C304.651 15.4517 304.741 15.4446 304.817 15.4304C304.894 15.4162 304.954 15.4048 304.996 15.3963L305.227 16.4489C305.153 16.4773 305.048 16.5057 304.911 16.5341C304.775 16.5653 304.604 16.5824 304.4 16.5852C304.065 16.5909 303.752 16.5312 303.462 16.4062C303.173 16.2812 302.938 16.0881 302.759 15.8267C302.58 15.5653 302.491 15.2372 302.491 14.8423V8.38636ZM308.422 16.6449C308.007 16.6449 307.632 16.5682 307.297 16.4148C306.961 16.2585 306.696 16.0327 306.5 15.7372C306.306 15.4418 306.21 15.0795 306.21 14.6506C306.21 14.2812 306.281 13.9773 306.423 13.7386C306.565 13.5 306.757 13.3111 306.998 13.1719C307.24 13.0327 307.51 12.9276 307.808 12.8565C308.106 12.7855 308.41 12.7315 308.72 12.6946C309.112 12.6491 309.43 12.6122 309.674 12.5838C309.919 12.5526 310.096 12.5028 310.207 12.4347C310.318 12.3665 310.373 12.2557 310.373 12.1023V12.0724C310.373 11.7003 310.268 11.4119 310.058 11.2074C309.85 11.0028 309.541 10.9006 309.129 10.9006C308.7 10.9006 308.362 10.9957 308.115 11.1861C307.87 11.3736 307.701 11.5824 307.608 11.8125L306.41 11.5398C306.552 11.142 306.76 10.821 307.032 10.5767C307.308 10.3295 307.625 10.1506 307.983 10.0398C308.341 9.92614 308.717 9.86932 309.112 9.86932C309.373 9.86932 309.65 9.90057 309.943 9.96307C310.238 10.0227 310.514 10.1335 310.77 10.2955C311.028 10.4574 311.24 10.6889 311.404 10.9901C311.569 11.2884 311.652 11.6761 311.652 12.1534V16.5H310.407V15.6051H310.356C310.274 15.7699 310.15 15.9318 309.985 16.0909C309.821 16.25 309.609 16.3821 309.35 16.4872C309.092 16.5923 308.782 16.6449 308.422 16.6449ZM308.699 15.6222C309.051 15.6222 309.352 15.5526 309.602 15.4134C309.855 15.2741 310.047 15.0923 310.177 14.8679C310.311 14.6406 310.377 14.3977 310.377 14.1392V13.2955C310.332 13.3409 310.244 13.3835 310.113 13.4233C309.985 13.4602 309.839 13.4929 309.674 13.5213C309.51 13.5469 309.349 13.571 309.193 13.5938C309.037 13.6136 308.906 13.6307 308.801 13.6449C308.554 13.6761 308.328 13.7287 308.123 13.8026C307.922 13.8764 307.76 13.983 307.637 14.1222C307.518 14.2585 307.458 14.4403 307.458 14.6676C307.458 14.983 307.575 15.2216 307.808 15.3835C308.041 15.5426 308.338 15.6222 308.699 15.6222ZM316.404 9.95455V10.9773H312.829V9.95455H316.404ZM313.788 8.38636H315.062V14.5781C315.062 14.8253 315.099 15.0114 315.173 15.1364C315.246 15.2585 315.342 15.3423 315.458 15.3878C315.577 15.4304 315.707 15.4517 315.846 15.4517C315.948 15.4517 316.038 15.4446 316.114 15.4304C316.191 15.4162 316.251 15.4048 316.293 15.3963L316.523 16.4489C316.45 16.4773 316.344 16.5057 316.208 16.5341C316.072 16.5653 315.901 16.5824 315.697 16.5852C315.362 16.5909 315.049 16.5312 314.759 16.4062C314.469 16.2812 314.235 16.0881 314.056 15.8267C313.877 15.5653 313.788 15.2372 313.788 14.8423V8.38636ZM321.96 13.7855V9.95455H323.238V16.5H321.985V15.3665H321.917C321.767 15.7159 321.525 16.0071 321.193 16.2401C320.863 16.4702 320.453 16.5852 319.961 16.5852C319.541 16.5852 319.169 16.4929 318.845 16.3082C318.524 16.1207 318.271 15.8438 318.086 15.4773C317.904 15.1108 317.814 14.6577 317.814 14.1179V9.95455H319.088V13.9645C319.088 14.4105 319.211 14.7656 319.458 15.0298C319.706 15.294 320.027 15.4261 320.422 15.4261C320.66 15.4261 320.897 15.3665 321.133 15.2472C321.372 15.1278 321.569 14.9474 321.725 14.706C321.885 14.4645 321.963 14.1577 321.96 13.7855ZM329.855 11.5526L328.7 11.7571C328.652 11.6094 328.575 11.4687 328.47 11.3352C328.368 11.2017 328.229 11.0923 328.053 11.0071C327.876 10.9219 327.656 10.8793 327.392 10.8793C327.031 10.8793 326.73 10.9602 326.489 11.1222C326.247 11.2812 326.126 11.4872 326.126 11.7401C326.126 11.9588 326.207 12.1349 326.369 12.2685C326.531 12.402 326.793 12.5114 327.153 12.5966L328.193 12.8352C328.795 12.9744 329.244 13.1889 329.54 13.4787C329.835 13.7685 329.983 14.1449 329.983 14.608C329.983 15 329.869 15.3494 329.642 15.6562C329.418 15.9602 329.104 16.1989 328.7 16.3722C328.3 16.5455 327.835 16.6321 327.307 16.6321C326.574 16.6321 325.976 16.4759 325.513 16.1634C325.05 15.848 324.766 15.4006 324.661 14.821L325.892 14.6335C325.969 14.9545 326.126 15.1974 326.365 15.3622C326.604 15.5241 326.915 15.6051 327.298 15.6051C327.716 15.6051 328.05 15.5185 328.3 15.3452C328.55 15.169 328.675 14.9545 328.675 14.7017C328.675 14.4972 328.598 14.3253 328.445 14.1861C328.294 14.0469 328.062 13.9418 327.75 13.8707L326.642 13.6278C326.031 13.4886 325.58 13.267 325.287 12.9631C324.997 12.6591 324.852 12.2741 324.852 11.8082C324.852 11.4219 324.96 11.0838 325.176 10.794C325.392 10.5043 325.69 10.2784 326.071 10.1165C326.452 9.9517 326.888 9.86932 327.379 9.86932C328.087 9.86932 328.643 10.0227 329.05 10.3295C329.456 10.6335 329.724 11.0412 329.855 11.5526Z" fill="black"/>
</svg>
