<svg width="20" height="20" viewBox="0 0 20 20" fill="none" xmlns="http://www.w3.org/2000/svg">
<path d="M2.5 11.25C2.5 12.7334 2.93987 14.1834 3.76398 15.4168C4.58809 16.6501 5.75943 17.6114 7.12988 18.1791C8.50032 18.7468 10.0083 18.8953 11.4632 18.6059C12.918 18.3165 14.2544 17.6022 15.3033 16.5533C16.3522 15.5044 17.0665 14.168 17.3559 12.7132C17.6453 11.2583 17.4968 9.75032 16.9291 8.37987C16.3614 7.00943 15.4001 5.83809 14.1668 5.01398C12.9334 4.18987 11.4834 3.75 10 3.75L4.125 3.75L6.375 1.5L5.5 0.624999L1.75 4.375L5.5 8.125L6.375 7.25L4.125 5L10 5C11.2361 5 12.4445 5.36656 13.4723 6.05331C14.5001 6.74007 15.3012 7.71619 15.7743 8.85823C16.2473 10.0003 16.3711 11.2569 16.1299 12.4693C15.8888 13.6817 15.2935 14.7953 14.4194 15.6694C13.5453 16.5435 12.4317 17.1388 11.2193 17.3799C10.0069 17.6211 8.75027 17.4973 7.60823 17.0242C6.46619 16.5512 5.49008 15.7501 4.80332 14.7223C4.11656 13.6945 3.75 12.4861 3.75 11.25L2.5 11.25Z" fill="white"/>
</svg>
