<svg width="32" height="32" viewBox="0 0 32 32" fill="current" xmlns="http://www.w3.org/2000/svg">
<mask id="path-1-inside-1_1025_8666" fill="white">
<path d="M16 5.5C17.3992 5.49959 18.7841 5.78051 20.0726 6.32607C21.361 6.87163 22.5266 7.67068 23.5 8.67573V5.5H25V11.5H19V10H22.6913C21.2861 8.43968 19.3789 7.42069 17.3007 7.11995C15.2226 6.8192 13.1048 7.25569 11.3149 8.35363C9.52501 9.45157 8.17612 11.1416 7.50241 13.1304C6.8287 15.1192 6.8727 17.2811 7.62678 19.2408C8.38085 21.2005 9.79739 22.8343 11.6305 23.8585C13.4635 24.8827 15.5974 25.2327 17.6616 24.8476C19.7257 24.4626 21.5899 23.3668 22.9304 21.7506C24.271 20.1344 25.0032 18.0998 25 16H26.5C26.5 18.0767 25.8842 20.1068 24.7304 21.8335C23.5767 23.5602 21.9368 24.906 20.0182 25.7007C18.0996 26.4955 15.9884 26.7034 13.9516 26.2982C11.9148 25.8931 10.0438 24.8931 8.57538 23.4246C7.10693 21.9562 6.1069 20.0852 5.70176 18.0484C5.29661 16.0116 5.50455 13.9004 6.29927 11.9818C7.09399 10.0632 8.4398 8.42332 10.1665 7.26957C11.8932 6.11581 13.9233 5.5 16 5.5Z"/>
</mask>
<path d="M16 5.5V6.5L16.0003 6.5L16 5.5ZM20.0726 6.32607L19.6827 7.24692V7.24692L20.0726 6.32607ZM23.5 8.67573L22.7817 9.37145L24.5 11.1456V8.67573H23.5ZM23.5 5.5V4.5H22.5V5.5H23.5ZM25 5.5H26V4.5H25V5.5ZM25 11.5V12.5H26V11.5H25ZM19 11.5H18V12.5H19V11.5ZM19 10V9H18V10H19ZM22.6913 10V11H24.9376L23.4344 9.3308L22.6913 10ZM17.3007 7.11995L17.1575 8.10964L17.3007 7.11995ZM7.50241 13.1304L6.55528 12.8096L7.50241 13.1304ZM7.62678 19.2408L8.56007 18.8817L7.62678 19.2408ZM11.6305 23.8585L12.1182 22.9855L11.6305 23.8585ZM25 16V15H23.9985L24 16.0015L25 16ZM26.5 16H27.5V15H26.5V16ZM8.57538 23.4246L9.28249 22.7175H9.28249L8.57538 23.4246ZM6.29927 11.9818L7.22315 12.3645L6.29927 11.9818ZM10.1665 7.26957L9.61095 6.4381V6.4381L10.1665 7.26957ZM16.0003 6.5C17.2654 6.49963 18.5177 6.75364 19.6827 7.24692L20.4625 5.40522C19.0506 4.80739 17.5329 4.49955 15.9997 4.5L16.0003 6.5ZM19.6827 7.24692C20.8476 7.74021 21.9015 8.4627 22.7817 9.37145L24.2183 7.98001C23.1516 6.87867 21.8744 6.00305 20.4625 5.40522L19.6827 7.24692ZM24.5 8.67573V5.5H22.5V8.67573H24.5ZM23.5 6.5H25V4.5H23.5V6.5ZM24 5.5V11.5H26V5.5H24ZM25 10.5H19V12.5H25V10.5ZM20 11.5V10H18V11.5H20ZM19 11H22.6913V9H19V11ZM23.4344 9.3308C21.8728 7.59685 19.7534 6.46447 17.444 6.13026L17.1575 8.10964C19.0044 8.37692 20.6994 9.28251 21.9482 10.6692L23.4344 9.3308ZM17.444 6.13026C15.1346 5.79604 12.7811 6.2811 10.792 7.50122L11.8378 9.20603C13.4285 8.23027 15.3106 7.84236 17.1575 8.10964L17.444 6.13026ZM10.792 7.50122C8.80295 8.72134 7.30396 10.5995 6.55528 12.8096L8.44954 13.4513C9.04828 11.6838 10.2471 10.1818 11.8378 9.20603L10.792 7.50122ZM6.55528 12.8096C5.8066 15.0197 5.8555 17.4221 6.69349 19.5999L8.56007 18.8817C7.88991 17.1401 7.8508 15.2187 8.44954 13.4513L6.55528 12.8096ZM6.69349 19.5999C7.53148 21.7777 9.10564 23.5933 11.1427 24.7315L12.1182 22.9855C10.4891 22.0753 9.23023 20.6233 8.56007 18.8817L6.69349 19.5999ZM11.1427 24.7315C13.1797 25.8697 15.551 26.2586 17.8449 25.8307L17.4782 23.8646C15.6437 24.2068 13.7473 23.8958 12.1182 22.9855L11.1427 24.7315ZM17.8449 25.8307C20.1388 25.4028 22.2104 24.1851 23.7001 22.389L22.1607 21.1122C20.9694 22.5486 19.3127 23.5224 17.4782 23.8646L17.8449 25.8307ZM23.7001 22.389C25.1898 20.593 26.0035 18.3319 26 15.9985L24 16.0015C24.0028 17.8676 23.3521 19.6758 22.1607 21.1122L23.7001 22.389ZM25 17H26.5V15H25V17ZM25.5 16C25.5 17.8789 24.9428 19.7156 23.899 21.2779L25.5619 22.3891C26.8255 20.4979 27.5 18.2745 27.5 16H25.5ZM23.899 21.2779C22.8551 22.8402 21.3714 24.0578 19.6355 24.7769L20.4009 26.6246C22.5022 25.7542 24.2983 24.2802 25.5619 22.3891L23.899 21.2779ZM19.6355 24.7769C17.8996 25.4959 15.9895 25.684 14.1466 25.3175L13.7565 27.279C15.9872 27.7228 18.2995 27.495 20.4009 26.6246L19.6355 24.7769ZM14.1466 25.3175C12.3038 24.9509 10.6111 24.0461 9.28249 22.7175L7.86828 24.1317C9.47658 25.74 11.5257 26.8353 13.7565 27.279L14.1466 25.3175ZM9.28249 22.7175C7.95389 21.3889 7.0491 19.6962 6.68254 17.8534L4.72097 18.2435C5.1647 20.4743 6.25997 22.5234 7.86828 24.1317L9.28249 22.7175ZM6.68254 17.8534C6.31598 16.0105 6.50412 14.1004 7.22315 12.3645L5.37539 11.5991C4.50498 13.7005 4.27724 16.0128 4.72097 18.2435L6.68254 17.8534ZM7.22315 12.3645C7.94218 10.6286 9.15982 9.14491 10.7221 8.10104L9.61095 6.4381C7.71978 7.70174 6.2458 9.49779 5.37539 11.5991L7.22315 12.3645ZM10.7221 8.10104C12.2844 7.05717 14.1211 6.5 16 6.5V4.5C13.7255 4.5 11.5021 5.17446 9.61095 6.4381L10.7221 8.10104Z" fill="current" mask="url(#path-1-inside-1_1025_8666)"/>
</svg>
