<svg width="64" height="40" viewBox="0 0 64 40" fill="none" xmlns="http://www.w3.org/2000/svg">
<rect x="10" y="20" width="42" height="10" rx="5" fill="#161717"/>
<rect opacity="0.15" x="10.5" y="20.5" width="9" height="9" rx="4.5" fill="#D1E45C" stroke="#161717"/>
<rect opacity="0.15" x="26.5" y="20.5" width="9" height="9" rx="4.5" fill="#FF7B43" stroke="#161717"/>
<rect x="42.5" y="20.5" width="9" height="9" rx="4.5" fill="#F93D3D" stroke="#161717"/>
<path d="M29.4356 2.70968C30.1309 1.50538 31.8691 1.50538 32.5644 2.70968L38.0958 12.2903C38.7911 13.4946 37.922 15 36.5314 15H25.4686C24.078 15 23.2089 13.4946 23.9042 12.2903L29.4356 2.70968Z" fill="#F93D3D"/>
<path d="M31.6318 6.25897L31.521 10.3328H30.4812L30.3676 6.25897H31.6318ZM31.0011 12.151C30.8136 12.151 30.6526 12.0847 30.5182 11.9521C30.3837 11.8177 30.3174 11.6567 30.3193 11.4692C30.3174 11.2836 30.3837 11.1245 30.5182 10.9919C30.6526 10.8593 30.8136 10.7931 31.0011 10.7931C31.1811 10.7931 31.3392 10.8593 31.4756 10.9919C31.6119 11.1245 31.6811 11.2836 31.6829 11.4692C31.6811 11.5942 31.6479 11.7088 31.5835 11.8129C31.521 11.9152 31.4386 11.9976 31.3364 12.0601C31.2341 12.1207 31.1223 12.151 31.0011 12.151Z" fill="black"/>
</svg>
