<svg width="16" height="16" viewBox="0 0 16 16" fill="none" xmlns="http://www.w3.org/2000/svg">
<path fill-rule="evenodd" clip-rule="evenodd" d="M8.42361 2.20718L8.4236 9.49998H9.4236L9.42361 2.20718L11.1464 3.93002L11.8536 3.22291L9.27716 0.646522L8.9236 0.292969L8.57005 0.646522L6.14644 3.07013L6.85355 3.77724L8.42361 2.20718ZM4.5 6.99995C4.5 6.72381 4.72386 6.49995 5 6.49995H6.75V5.49995H5C4.17157 5.49995 3.5 6.17153 3.5 6.99995V13C3.5 13.8284 4.17157 14.5 5 14.5H13C13.8284 14.5 14.5 13.8284 14.5 13V6.99995C14.5 6.17153 13.8284 5.49995 13 5.49995H11.25V6.49995H13C13.2761 6.49995 13.5 6.72381 13.5 6.99995V13C13.5 13.2761 13.2761 13.5 13 13.5H5C4.72386 13.5 4.5 13.2761 4.5 13V6.99995Z" fill="black"/>
</svg>
