<svg width="24" height="140" viewBox="0 0 24 140" fill="none" xmlns="http://www.w3.org/2000/svg">
<g clip-path="url(#clip0_5260_73627)">
<path d="M0 0H20C22.2091 0 24 1.79086 24 4V136C24 138.209 22.2091 140 20 140H0V0Z" fill="current"/>
<path d="M7 41.4165L7 37.9662L17.1818 37.9662L17.1818 41.4861C17.1818 42.497 16.978 43.3653 16.5703 44.0912C16.166 44.8203 15.5843 45.3805 14.8253 45.7716C14.0663 46.1627 13.1581 46.3582 12.1009 46.3582C11.0402 46.3582 10.1288 46.161 9.36648 45.7666C8.60416 45.3755 8.01917 44.8104 7.6115 44.0713C7.20383 43.3355 7 42.4505 7 41.4165ZM8.59588 39.8106L8.59588 41.327C8.59588 42.0363 8.72514 42.6279 8.98366 43.1018C9.2455 43.5758 9.63494 43.9321 10.152 44.1707C10.6723 44.4094 11.322 44.5287 12.1009 44.5287C12.8797 44.5287 13.526 44.4094 14.0398 44.1707C14.5568 43.9321 14.9429 43.5791 15.1982 43.1118C15.4567 42.6478 15.5859 42.0711 15.5859 41.3817L15.5859 39.8106L8.59588 39.8106ZM6.85085 51.4118C6.85085 50.6462 7.00994 49.985 7.32812 49.4282C7.64962 48.8747 8.10369 48.4488 8.69034 48.1505C9.2803 47.8522 9.97467 47.703 10.7734 47.703C11.5589 47.703 12.2483 47.8522 12.8416 48.1505C13.4382 48.4521 13.9022 48.873 14.2337 49.4133C14.5684 49.9535 14.7358 50.5882 14.7358 51.3174C14.7358 51.788 14.6596 52.2322 14.5071 52.6498C14.358 53.0707 14.1259 53.4419 13.8111 53.7634C13.4962 54.0882 13.0952 54.3434 12.608 54.529C12.1241 54.7146 11.5473 54.8074 10.8778 54.8074L10.326 54.8074L10.326 48.5482L11.5391 48.5482L11.5391 53.0823C11.8838 53.079 12.1903 53.0044 12.4588 52.8586C12.7306 52.7127 12.9444 52.5089 13.1001 52.2471C13.2559 51.9885 13.3338 51.6869 13.3338 51.3422C13.3338 50.9743 13.2443 50.6512 13.0653 50.3728C12.8897 50.0944 12.6577 49.8773 12.3693 49.7215C12.0843 49.569 11.7711 49.4912 11.4297 49.4878L10.3707 49.4878C9.92661 49.4878 9.54545 49.569 9.22727 49.7314C8.9124 49.8939 8.67045 50.1209 8.50142 50.4126C8.3357 50.7042 8.25284 51.0456 8.25284 51.4367C8.25284 51.6985 8.2893 51.9355 8.36221 52.1476C8.43844 52.3598 8.54948 52.5437 8.69531 52.6995C8.84114 52.8553 9.02178 52.9729 9.23721 53.0525L9.04829 54.7329C8.60416 54.6268 8.21638 54.4246 7.88494 54.1263C7.55682 53.8314 7.30161 53.4535 7.11932 52.9928C6.94034 52.5321 6.85085 52.0051 6.85085 51.4118ZM14.6364 60.1432L13.2443 60.1432L13.2443 55.7533L14.6364 55.7533L14.6364 60.1432ZM16.4659 56.8371L16.4659 58.6368L9.29687 58.6368C9.05492 58.6368 8.86932 58.6733 8.74005 58.7462C8.61411 58.8224 8.52793 58.9218 8.48153 59.0445C8.43513 59.1671 8.41193 59.303 8.41193 59.4521C8.41193 59.5648 8.42022 59.6676 8.43679 59.7604C8.45336 59.8565 8.46827 59.9294 8.48153 59.9791L7.07457 60.2824C7.04143 60.1863 7.00497 60.0487 6.9652 59.8698C6.92542 59.6941 6.90222 59.4787 6.89559 59.2235C6.88234 58.7727 6.95028 58.3667 7.09943 58.0054C7.25189 57.6441 7.48721 57.3575 7.8054 57.1453C8.12358 56.9365 8.5213 56.8338 8.99858 56.8371L16.4659 56.8371ZM6.85085 64.947C6.85085 64.1814 7.00994 63.5202 7.32812 62.9633C7.64962 62.4098 8.10369 61.9839 8.69034 61.6856C9.2803 61.3873 9.97467 61.2382 10.7734 61.2382C11.5589 61.2382 12.2483 61.3873 12.8416 61.6856C13.4382 61.9872 13.9022 62.4082 14.2337 62.9484C14.5684 63.4887 14.7358 64.1234 14.7358 64.8525C14.7358 65.3232 14.6596 65.7673 14.5071 66.1849C14.358 66.6059 14.1259 66.9771 13.8111 67.2986C13.4962 67.6234 13.0952 67.8786 12.608 68.0642C12.1241 68.2498 11.5473 68.3426 10.8778 68.3426L10.326 68.3426L10.326 62.0834L11.5391 62.0834L11.5391 66.6175C11.8838 66.6141 12.1903 66.5396 12.4588 66.3937C12.7306 66.2479 12.9444 66.0441 13.1001 65.7822C13.2559 65.5237 13.3338 65.2221 13.3338 64.8774C13.3338 64.5095 13.2443 64.1863 13.0653 63.9079C12.8897 63.6295 12.6577 63.4124 12.3693 63.2567C12.0843 63.1042 11.7711 63.0263 11.4297 63.023L10.3707 63.023C9.92661 63.023 9.54545 63.1042 9.22727 63.2666C8.9124 63.429 8.67045 63.656 8.50142 63.9477C8.3357 64.2394 8.25284 64.5808 8.25284 64.9719C8.25284 65.2337 8.2893 65.4707 8.36221 65.6828C8.43844 65.8949 8.54948 66.0789 8.69531 66.2346C8.84114 66.3904 9.02178 66.5081 9.23721 66.5876L9.04829 68.268C8.60416 68.162 8.21638 67.9598 7.88494 67.6615C7.55682 67.3665 7.30161 66.9887 7.11932 66.528C6.94034 66.0673 6.85085 65.5403 6.85085 64.947ZM6.85085 73.1961C6.85085 72.4338 7.01823 71.7792 7.35298 71.2323C7.68773 70.6888 8.15009 70.2695 8.74005 69.9745C9.33333 69.6829 10.0161 69.537 10.7883 69.537C11.5639 69.537 12.2483 69.6862 12.8416 69.9845C13.4382 70.2828 13.9022 70.7037 14.2337 71.2472C14.5684 71.7941 14.7358 72.4404 14.7358 73.1862C14.7358 73.806 14.6214 74.3545 14.3928 74.8318C14.1674 75.3124 13.8475 75.6952 13.4332 75.9802C13.0223 76.2652 12.5417 76.4276 11.9915 76.4674L11.9915 74.7472C12.3594 74.6776 12.666 74.5119 12.9112 74.2501C13.1598 73.9916 13.2841 73.6452 13.2841 73.211C13.2841 72.8431 13.1847 72.52 12.9858 72.2416C12.7902 71.9632 12.5085 71.7461 12.1406 71.5903C11.7727 71.4378 11.3319 71.3616 10.8182 71.3616C10.2978 71.3616 9.85038 71.4378 9.47585 71.5903C9.10464 71.7427 8.81794 71.9565 8.61576 72.2316C8.4169 72.51 8.31747 72.8365 8.31747 73.211C8.31747 73.4762 8.36718 73.7132 8.46662 73.922C8.56936 74.1341 8.71685 74.3114 8.90909 74.4539C9.10132 74.5964 9.33499 74.6942 9.61008 74.7472L9.61008 76.4674C9.06984 76.4243 8.59091 76.2652 8.17329 75.9901C7.75899 75.7151 7.43418 75.3405 7.19886 74.8666C6.96685 74.3926 6.85085 73.8358 6.85085 73.1961ZM14.6364 81.7584L13.2443 81.7584L13.2443 77.3685L14.6364 77.3685L14.6364 81.7584ZM16.4659 78.4523L16.4659 80.252L9.29687 80.252C9.05492 80.252 8.86931 80.2885 8.74005 80.3614C8.61411 80.4376 8.52793 80.5371 8.48153 80.6597C8.43513 80.7823 8.41193 80.9182 8.41193 81.0674C8.41193 81.1801 8.42021 81.2828 8.43679 81.3756C8.45336 81.4717 8.46827 81.5447 8.48153 81.5944L7.07457 81.8976C7.04143 81.8015 7.00497 81.664 6.9652 81.485C6.92542 81.3093 6.90222 81.0939 6.89559 80.8387C6.88234 80.3879 6.95028 79.9819 7.09943 79.6206C7.25189 79.2594 7.48721 78.9727 7.80539 78.7606C8.12358 78.5518 8.5213 78.449 8.99858 78.4523L16.4659 78.4523ZM7 83.2636L14.6364 83.2636L14.6364 85.0633L7 85.0633L7 83.2636ZM15.7202 84.1684C15.7202 83.8834 15.8146 83.6381 16.0035 83.4326C16.1958 83.2271 16.4261 83.1244 16.6946 83.1244C16.9664 83.1244 17.1967 83.2271 17.3857 83.4326C17.5779 83.6381 17.674 83.8834 17.674 84.1684C17.674 84.4568 17.5779 84.702 17.3857 84.9042C17.1967 85.1097 16.9664 85.2124 16.6946 85.2124C16.4261 85.2124 16.1958 85.1097 16.0035 84.9042C15.8146 84.702 15.7202 84.4568 15.7202 84.1684ZM6.85085 90.2449C6.85085 89.4992 7.01491 88.8529 7.34304 88.306C7.67116 87.7591 8.1302 87.3349 8.72017 87.0333C9.31013 86.735 9.99952 86.5858 10.7883 86.5858C11.5772 86.5858 12.2682 86.735 12.8615 87.0333C13.4548 87.3349 13.9155 87.7591 14.2436 88.306C14.5717 88.8529 14.7358 89.4992 14.7358 90.2449C14.7358 90.9907 14.5717 91.637 14.2436 92.1839C13.9155 92.7307 13.4548 93.1533 12.8615 93.4516C12.2682 93.7532 11.5772 93.904 10.7883 93.904C9.99952 93.904 9.31013 93.7532 8.72017 93.4516C8.1302 93.1533 7.67116 92.7307 7.34304 92.1839C7.01491 91.637 6.85085 90.9907 6.85085 90.2449ZM8.29261 90.2549C8.29261 90.6592 8.40364 90.9973 8.62571 91.2691C8.85109 91.5409 9.15269 91.743 9.53054 91.8756C9.90838 92.0115 10.3293 92.0795 10.7933 92.0795C11.2606 92.0795 11.6832 92.0115 12.0611 91.8756C12.4422 91.743 12.7455 91.5409 12.9709 91.2691C13.1963 90.9973 13.3089 90.6592 13.3089 90.2549C13.3089 89.8406 13.1963 89.4959 12.9709 89.2208C12.7455 88.949 12.4422 88.7452 12.0611 88.6093C11.6832 88.4767 11.2606 88.4104 10.7933 88.4104C10.3293 88.4104 9.90838 88.4767 9.53054 88.6093C9.1527 88.7452 8.85109 88.949 8.62571 89.2208C8.40364 89.4959 8.29261 89.8406 8.29261 90.2549ZM11.4744 97.2313L7 97.2313L7 95.4316L14.6364 95.4316L14.6364 97.1517L13.3388 97.1517L13.3388 97.2412C13.7663 97.4169 14.1061 97.6969 14.358 98.0814C14.6098 98.4692 14.7358 98.9481 14.7358 99.5182C14.7358 100.045 14.6231 100.504 14.3977 100.895C14.1723 101.29 13.8459 101.595 13.4183 101.81C12.9908 102.029 12.4721 102.137 11.8622 102.133L7 102.133L7 100.334L11.5838 100.334C12.0942 100.334 12.4936 100.201 12.782 99.9358C13.0703 99.674 13.2145 99.311 13.2145 98.847C13.2145 98.5322 13.1449 98.2521 13.0057 98.0068C12.8698 97.7649 12.6726 97.5743 12.4141 97.4351C12.1555 97.2992 11.8423 97.2313 11.4744 97.2313Z" fill="white"/>
</g>
<defs>
<clipPath id="clip0_5260_73627">
<path d="M0 0H20C22.2091 0 24 1.79086 24 4V136C24 138.209 22.2091 140 20 140H0V0Z" fill="white"/>
</clipPath>
</defs>
</svg>
