<svg width="24" height="140" viewBox="0 0 24 140" fill="none" xmlns="http://www.w3.org/2000/svg">
<path d="M0 0H20C22.2091 0 24 1.79086 24 4V136C24 138.209 22.2091 140 20 140H0V0Z" fill="current"/>
<path d="M7 21.1069L7 17.6566L17.1818 17.6566L17.1818 21.1765C17.1818 22.1874 16.978 23.0558 16.5703 23.7816C16.166 24.5108 15.5843 25.0709 14.8253 25.462C14.0663 25.8531 13.1581 26.0487 12.1009 26.0487C11.0402 26.0487 10.1288 25.8514 9.36648 25.457C8.60417 25.0659 8.01918 24.5008 7.6115 23.7617C7.20383 23.0259 7 22.141 7 21.1069ZM8.59588 19.5011L8.59588 21.0174C8.59588 21.7267 8.72514 22.3183 8.98366 22.7923C9.2455 23.2662 9.63494 23.6225 10.152 23.8612C10.6723 24.0998 11.322 24.2191 12.1009 24.2191C12.8797 24.2191 13.526 24.0998 14.0398 23.8612C14.5568 23.6225 14.9429 23.2695 15.1982 22.8022C15.4567 22.3382 15.5859 21.7615 15.5859 21.0721L15.5859 19.5011L8.59588 19.5011ZM6.85085 31.1023C6.85085 30.3366 7.00994 29.6754 7.32812 29.1186C7.64962 28.5651 8.10369 28.1392 8.69034 27.8409C9.2803 27.5426 9.97467 27.3935 10.7734 27.3935C11.5589 27.3935 12.2483 27.5426 12.8416 27.8409C13.4382 28.1425 13.9022 28.5634 14.2337 29.1037C14.5684 29.6439 14.7358 30.2786 14.7358 31.0078C14.7358 31.4785 14.6596 31.9226 14.5071 32.3402C14.358 32.7611 14.1259 33.1323 13.8111 33.4538C13.4962 33.7786 13.0952 34.0339 12.608 34.2195C12.1241 34.4051 11.5473 34.4979 10.8778 34.4979L10.326 34.4979L10.326 28.2386L11.5391 28.2386L11.5391 32.7727C11.8838 32.7694 12.1903 32.6948 12.4588 32.549C12.7306 32.4032 12.9444 32.1993 13.1001 31.9375C13.2559 31.679 13.3338 31.3774 13.3338 31.0327C13.3338 30.6648 13.2443 30.3416 13.0653 30.0632C12.8897 29.7848 12.6577 29.5677 12.3693 29.4119C12.0843 29.2595 11.7711 29.1816 11.4297 29.1783L10.3707 29.1783C9.92661 29.1783 9.54545 29.2595 9.22727 29.4219C8.9124 29.5843 8.67045 29.8113 8.50142 30.103C8.3357 30.3946 8.25284 30.736 8.25284 31.1271C8.25284 31.389 8.2893 31.6259 8.36221 31.8381C8.43845 32.0502 8.54948 32.2341 8.69531 32.3899C8.84114 32.5457 9.02178 32.6634 9.23721 32.7429L9.04829 34.4233C8.60417 34.3172 8.21638 34.1151 7.88494 33.8168C7.55682 33.5218 7.30161 33.1439 7.11932 32.6832C6.94034 32.2225 6.85085 31.6955 6.85085 31.1023ZM11.4744 37.8201L7 37.8201L7 36.0204L14.6364 36.0204L14.6364 37.7406L13.3388 37.7406L13.3388 37.8301C13.7663 38.0057 14.1061 38.2858 14.358 38.6703C14.6098 39.0581 14.7358 39.537 14.7358 40.1071C14.7358 40.6341 14.6231 41.0931 14.3977 41.4842C14.1723 41.8786 13.8459 42.1835 13.4183 42.399C12.9908 42.6177 12.4721 42.7254 11.8622 42.7221L7 42.7221L7 40.9224L11.5838 40.9224C12.0942 40.9224 12.4936 40.7898 12.782 40.5247C13.0703 40.2628 13.2145 39.8999 13.2145 39.4359C13.2145 39.121 13.1449 38.841 13.0057 38.5957C12.8698 38.3538 12.6726 38.1632 12.4141 38.024C12.1555 37.8881 11.8423 37.8201 11.4744 37.8201ZM14.6364 48.3649L13.2443 48.3649L13.2443 43.975L14.6364 43.975L14.6364 48.3649ZM16.4659 45.0588L16.4659 46.8585L9.29687 46.8585C9.05492 46.8585 8.86932 46.8949 8.74005 46.9679C8.61411 47.0441 8.52793 47.1435 8.48153 47.2662C8.43513 47.3888 8.41193 47.5247 8.41193 47.6738C8.41193 47.7865 8.42022 47.8893 8.43679 47.9821C8.45336 48.0782 8.46827 48.1511 8.48153 48.2008L7.07457 48.5041C7.04143 48.408 7.00497 48.2704 6.9652 48.0914C6.92542 47.9158 6.90222 47.7003 6.89559 47.4451C6.88234 46.9944 6.95028 46.5884 7.09943 46.2271C7.25189 45.8658 7.48721 45.5791 7.8054 45.367C8.12358 45.1582 8.52131 45.0555 8.99858 45.0588L16.4659 45.0588ZM6.84588 52.0675C6.84588 51.5836 6.93205 51.1477 7.1044 50.7599C7.28006 50.3755 7.53859 50.0705 7.87997 49.8452C8.22135 49.6231 8.64228 49.5121 9.14275 49.5121C9.57362 49.5121 9.92992 49.5916 10.2116 49.7507C10.4934 49.9098 10.7187 50.1269 10.8878 50.402C11.0568 50.6771 11.1844 50.987 11.2706 51.3317C11.3601 51.6797 11.4247 52.0393 11.4645 52.4105C11.5109 52.858 11.5523 53.2209 11.5888 53.4993C11.6285 53.7777 11.6882 53.9799 11.7678 54.1058C11.8506 54.2351 11.9782 54.2997 12.1506 54.2997L12.1804 54.2997C12.5549 54.2997 12.8449 54.1887 13.0504 53.9666C13.2559 53.7446 13.3587 53.4247 13.3587 53.0071C13.3587 52.5663 13.2625 52.2166 13.0703 51.9581C12.8781 51.7029 12.651 51.5305 12.3892 51.4411L12.6278 49.7607C13.0919 49.8932 13.4796 50.112 13.7912 50.4169C14.1061 50.7218 14.3414 51.0947 14.4972 51.5355C14.6562 51.9763 14.7358 52.4635 14.7358 52.9972C14.7358 53.3651 14.6927 53.7313 14.6065 54.0959C14.5204 54.4605 14.3778 54.7936 14.179 55.0952C13.9834 55.3968 13.7166 55.6387 13.3785 55.821C13.0405 56.0066 12.6179 56.0994 12.1108 56.0994L7 56.0994L7 54.3693L8.049 54.3693L8.049 54.3097C7.83688 54.2003 7.63802 54.0462 7.45241 53.8473C7.27012 53.6518 7.12263 53.4048 7.00994 53.1065C6.90057 52.8116 6.84588 52.4652 6.84588 52.0675ZM8.16832 52.5348C8.16832 52.8961 8.23958 53.2093 8.3821 53.4744C8.52793 53.7396 8.72017 53.9434 8.9588 54.0859C9.19744 54.2318 9.45762 54.3047 9.73934 54.3047L10.6392 54.3047C10.5928 54.2483 10.5497 54.1522 10.5099 54.0163C10.4702 53.8838 10.4354 53.7346 10.4055 53.5689C10.3757 53.4032 10.3492 53.2391 10.326 53.0767C10.3028 52.9143 10.2829 52.7734 10.2663 52.6541C10.2299 52.3857 10.1702 52.1454 10.0874 51.9332C10.0045 51.7211 9.88849 51.5537 9.73934 51.4311C9.59351 51.3085 9.40459 51.2472 9.17258 51.2472C8.84114 51.2472 8.59091 51.3681 8.42187 51.6101C8.25284 51.852 8.16832 52.1603 8.16832 52.5348ZM17.1818 59.7088L7 59.7088L7 57.9091L17.1818 57.9091L17.1818 59.7088ZM13.7464 73.8269L13.7464 71.9675C14.0514 71.9145 14.3215 71.8167 14.5568 71.6742C14.7955 71.5317 14.9976 71.3543 15.1633 71.1422C15.3291 70.9301 15.4534 70.6882 15.5362 70.4164C15.6224 70.1479 15.6655 69.8579 15.6655 69.5463C15.6655 68.9928 15.5263 68.5023 15.2479 68.0748C14.9728 67.6472 14.5684 67.3124 14.0348 67.0705C13.5045 66.8285 12.8565 66.7076 12.0909 66.7076C11.312 66.7076 10.6558 66.8285 10.1222 67.0705C9.59185 67.3158 9.19081 67.6505 8.91903 68.0748C8.65057 68.5023 8.51633 68.9912 8.51633 69.5414C8.51633 69.8463 8.55611 70.1313 8.63565 70.3965C8.71851 70.6649 8.83949 70.9052 8.99858 71.1174C9.15767 71.3328 9.35322 71.5134 9.58522 71.6593C9.81723 71.8084 10.0824 71.9112 10.3807 71.9675L10.3707 73.8269C9.88683 73.7573 9.43276 73.6065 9.00852 73.3745C8.58428 73.1458 8.20975 72.8458 7.88494 72.4746C7.56344 72.1034 7.31155 71.6692 7.12926 71.1721C6.95028 70.6749 6.86079 70.123 6.86079 69.5165C6.86079 68.6216 7.06794 67.8229 7.48224 67.1202C7.89654 66.4176 8.49479 65.8641 9.27699 65.4597C10.0592 65.0553 10.9972 64.8532 12.0909 64.8532C13.188 64.8532 14.1259 65.057 14.9048 65.4647C15.687 65.8723 16.2853 66.4275 16.6996 67.1301C17.1139 67.8328 17.321 68.6283 17.321 69.5165C17.321 70.0833 17.2415 70.6103 17.0824 71.0975C16.9233 71.5847 16.6896 72.0189 16.3814 72.4C16.0765 72.7812 15.7019 73.0944 15.2578 73.3397C14.817 73.5882 14.3132 73.7507 13.7464 73.8269ZM11.4744 77.2362L7 77.2362L7 75.4364L17.1818 75.4364L17.1818 77.1964L13.3388 77.1964L13.3388 77.2859C13.7696 77.4648 14.1094 77.7416 14.358 78.1161C14.6098 78.494 14.7358 78.9745 14.7358 79.5579C14.7358 80.0882 14.6248 80.5505 14.4027 80.945C14.1806 81.3394 13.8558 81.6443 13.4283 81.8597C13.0007 82.0785 12.4787 82.1879 11.8622 82.1879L7 82.1879L7 80.3881L11.5838 80.3881C12.0975 80.3881 12.4969 80.2556 12.782 79.9904C13.0703 79.7286 13.2145 79.3607 13.2145 78.8867C13.2145 78.5685 13.1449 78.2835 13.0057 78.0316C12.8698 77.783 12.6726 77.5875 12.4141 77.445C12.1555 77.3058 11.8423 77.2362 11.4744 77.2362ZM6.84588 86.2198C6.84588 85.7359 6.93205 85.3001 7.1044 84.9123C7.28006 84.5278 7.53859 84.2229 7.87997 83.9975C8.22135 83.7754 8.64228 83.6644 9.14275 83.6644C9.57362 83.6644 9.92992 83.744 10.2116 83.9031C10.4934 84.0621 10.7187 84.2792 10.8878 84.5543C11.0568 84.8294 11.1844 85.1393 11.2706 85.484C11.3601 85.832 11.4247 86.1916 11.4645 86.5629C11.5109 87.0103 11.5523 87.3732 11.5888 87.6516C11.6285 87.93 11.6882 88.1322 11.7678 88.2582C11.8506 88.3874 11.9782 88.4521 12.1506 88.4521L12.1804 88.4521C12.5549 88.4521 12.8449 88.341 13.0504 88.119C13.2559 87.8969 13.3587 87.5771 13.3587 87.1594C13.3587 86.7186 13.2625 86.369 13.0703 86.1104C12.8781 85.8552 12.651 85.6829 12.3892 85.5934L12.6278 83.913C13.0919 84.0456 13.4796 84.2643 13.7912 84.5692C14.1061 84.8742 14.3414 85.247 14.4972 85.6879C14.6562 86.1287 14.7358 86.6159 14.7358 87.1495C14.7358 87.5174 14.6927 87.8836 14.6065 88.2482C14.5204 88.6128 14.3778 88.9459 14.179 89.2475C13.9834 89.5491 13.7166 89.7911 13.3785 89.9734C13.0405 90.159 12.6179 90.2518 12.1108 90.2518L7 90.2518L7 88.5217L8.049 88.5217L8.049 88.462C7.83688 88.3526 7.63802 88.1985 7.45241 87.9996C7.27012 87.8041 7.12263 87.5572 7.00994 87.2589C6.90056 86.9639 6.84588 86.6175 6.84588 86.2198ZM8.16832 86.6871C8.16832 87.0484 8.23958 87.3616 8.3821 87.6268C8.52793 87.8919 8.72017 88.0958 8.9588 88.2383C9.19744 88.3841 9.45762 88.457 9.73934 88.457L10.6392 88.457C10.5928 88.4007 10.5497 88.3046 10.5099 88.1687C10.4702 88.0361 10.4354 87.887 10.4055 87.7212C10.3757 87.5555 10.3492 87.3915 10.326 87.229C10.3028 87.0666 10.2829 86.9258 10.2663 86.8065C10.2299 86.538 10.1702 86.2977 10.0874 86.0856C10.0045 85.8735 9.88849 85.7061 9.73934 85.5835C9.59351 85.4608 9.40459 85.3995 9.17258 85.3995C8.84114 85.3995 8.59091 85.5205 8.42187 85.7624C8.25284 86.0044 8.16832 86.3126 8.16832 86.6871ZM7 92.0614L14.6364 92.0614L14.6364 93.8065L13.3636 93.8065L13.3636 93.886C13.8044 94.0252 14.1442 94.2638 14.3828 94.6019C14.6248 94.9433 14.7457 95.3327 14.7457 95.7702C14.7457 95.8697 14.7408 95.9807 14.7308 96.1033C14.7242 96.2293 14.7126 96.3337 14.696 96.4165L13.0405 96.4165C13.067 96.3403 13.0902 96.2193 13.1101 96.0536C13.1333 95.8912 13.1449 95.7338 13.1449 95.5813C13.1449 95.2532 13.0736 94.9582 12.9311 94.6964C12.7919 94.4379 12.598 94.234 12.3494 94.0849C12.1008 93.9357 11.8142 93.8612 11.4893 93.8612L7 93.8612L7 92.0614ZM14.6364 101.836L13.2443 101.836L13.2443 97.4457L14.6364 97.4457L14.6364 101.836ZM16.4659 98.5295L16.4659 100.329L9.29687 100.329C9.05492 100.329 8.86931 100.366 8.74005 100.439C8.61411 100.515 8.52793 100.614 8.48153 100.737C8.43513 100.859 8.41193 100.995 8.41193 101.145C8.41193 101.257 8.42021 101.36 8.43679 101.453C8.45336 101.549 8.46827 101.622 8.48153 101.672L7.07457 101.975C7.04143 101.879 7.00497 101.741 6.96519 101.562C6.92542 101.386 6.90222 101.171 6.89559 100.916C6.88233 100.465 6.95028 100.059 7.09943 99.6978C7.25189 99.3365 7.48721 99.0498 7.80539 98.8377C8.12358 98.6289 8.5213 98.5262 8.99858 98.5295L16.4659 98.5295ZM7 103.341L14.6364 103.341L14.6364 105.14L7 105.14L7 103.341ZM15.7202 104.246C15.7202 103.961 15.8146 103.715 16.0035 103.51C16.1958 103.304 16.4261 103.202 16.6946 103.202C16.9664 103.202 17.1967 103.304 17.3856 103.51C17.5779 103.715 17.674 103.961 17.674 104.246C17.674 104.534 17.5779 104.779 17.3856 104.981C17.1967 105.187 16.9664 105.29 16.6946 105.29C16.4261 105.29 16.1958 105.187 16.0035 104.981C15.8146 104.779 15.7202 104.534 15.7202 104.246ZM11.4744 108.791L7 108.791L7 106.991L14.6364 106.991L14.6364 108.711L13.3388 108.711L13.3388 108.801C13.7663 108.976 14.1061 109.257 14.358 109.641C14.6098 110.029 14.7358 110.508 14.7358 111.078C14.7358 111.605 14.6231 112.064 14.3977 112.455C14.1723 112.849 13.8459 113.154 13.4183 113.37C12.9908 113.588 12.4721 113.696 11.8622 113.693L7 113.693L7 111.893L11.5838 111.893C12.0942 111.893 12.4936 111.761 12.782 111.495C13.0703 111.234 13.2145 110.871 13.2145 110.407C13.2145 110.092 13.1449 109.812 13.0057 109.566C12.8698 109.324 12.6726 109.134 12.4141 108.995C12.1555 108.859 11.8423 108.791 11.4744 108.791ZM3.97727 118.843C3.97727 118.197 4.0651 117.642 4.24076 117.178C4.41311 116.714 4.64512 116.341 4.93678 116.059C5.22845 115.778 5.5516 115.582 5.90625 115.473L6.299 117.093C6.14985 117.166 6.00236 117.272 5.85653 117.412C5.70738 117.551 5.58475 117.738 5.48863 117.973C5.3892 118.212 5.33948 118.512 5.33948 118.873C5.33948 119.384 5.46377 119.806 5.71235 120.141C5.95762 120.476 6.36197 120.643 6.92542 120.643L8.37215 120.643L8.37215 120.554C8.18655 120.461 7.99597 120.325 7.80042 120.146C7.60487 119.97 7.44081 119.737 7.30823 119.445C7.17566 119.157 7.10937 118.794 7.10937 118.356C7.10937 117.77 7.24692 117.238 7.52201 116.76C7.80042 116.286 8.21472 115.908 8.76491 115.627C9.31841 115.348 10.0111 115.209 10.843 115.209C11.6816 115.209 12.3892 115.348 12.9659 115.627C13.5459 115.908 13.9851 116.288 14.2834 116.765C14.585 117.243 14.7358 117.775 14.7358 118.361C14.7358 118.809 14.6596 119.176 14.5071 119.465C14.3579 119.757 14.1773 119.989 13.9652 120.161C13.7564 120.333 13.5592 120.464 13.3736 120.554L13.3736 120.653L14.6364 120.653L14.6364 122.428L6.87571 122.428C6.22277 122.428 5.68252 122.272 5.25497 121.961C4.82741 121.649 4.50757 121.223 4.29545 120.683C4.08333 120.143 3.97727 119.529 3.97727 118.843ZM8.5213 118.858C8.5213 119.239 8.6141 119.564 8.79971 119.833C8.98532 120.101 9.25213 120.305 9.60014 120.444C9.94815 120.583 10.3658 120.653 10.853 120.653C11.3336 120.653 11.7545 120.583 12.1158 120.444C12.477 120.308 12.7571 120.106 12.956 119.838C13.1581 119.573 13.2592 119.246 13.2592 118.858C13.2592 118.457 13.1548 118.123 12.946 117.854C12.7372 117.586 12.4505 117.383 12.0859 117.248C11.7247 117.112 11.3137 117.044 10.853 117.044C10.3856 117.044 9.97632 117.112 9.625 117.248C9.27698 117.387 9.0052 117.591 8.80965 117.859C8.61742 118.131 8.5213 118.464 8.5213 118.858Z" fill="white"/>
</svg>
