<svg width="24" height="140" viewBox="0 0 24 140" fill="none" xmlns="http://www.w3.org/2000/svg">
<path d="M0 0H20C22.2091 0 24 1.79086 24 4V136C24 138.209 22.2091 140 20 140H0V0Z" fill="current"/>
<path d="M7 22.1888L17.1818 22.1888L17.1818 26.007C17.1818 26.7892 17.036 27.4455 16.7443 27.9758C16.4527 28.5094 16.0516 28.9121 15.5412 29.1839C15.0341 29.459 14.4574 29.5965 13.8111 29.5965C13.1581 29.5965 12.5781 29.459 12.071 29.1839C11.5639 28.9088 11.1645 28.5028 10.8729 27.9658C10.5845 27.4289 10.4403 26.7677 10.4403 25.9822L10.4403 23.4516L11.9567 23.4516L11.9567 25.7336C11.9567 26.191 12.0362 26.5655 12.1953 26.8572C12.3544 27.1488 12.5732 27.3643 12.8516 27.5035C13.13 27.646 13.4498 27.7172 13.8111 27.7172C14.1723 27.7172 14.4905 27.646 14.7656 27.5035C15.0407 27.3643 15.2545 27.1472 15.407 26.8522C15.5627 26.5605 15.6406 26.1843 15.6406 25.7236L15.6406 24.0333L7 24.0333L7 22.1888ZM6.85085 34.3904C6.85085 33.6247 7.00994 32.9635 7.32812 32.4067C7.64962 31.8532 8.10369 31.4273 8.69034 31.129C9.2803 30.8307 9.97467 30.6816 10.7734 30.6816C11.5589 30.6816 12.2483 30.8307 12.8416 31.129C13.4382 31.4306 13.9022 31.8515 14.2337 32.3918C14.5684 32.932 14.7358 33.5667 14.7358 34.2959C14.7358 34.7665 14.6596 35.2107 14.5071 35.6283C14.358 36.0492 14.1259 36.4204 13.8111 36.7419C13.4962 37.0667 13.0952 37.3219 12.608 37.5075C12.1241 37.6932 11.5473 37.786 10.8778 37.786L10.326 37.786L10.326 31.5267L11.5391 31.5267L11.5391 36.0608C11.8838 36.0575 12.1903 35.9829 12.4588 35.8371C12.7306 35.6913 12.9444 35.4874 13.1001 35.2256C13.2559 34.9671 13.3338 34.6655 13.3338 34.3208C13.3338 33.9529 13.2443 33.6297 13.0653 33.3513C12.8897 33.0729 12.6577 32.8558 12.3693 32.7C12.0843 32.5476 11.7711 32.4697 11.4297 32.4664L10.3707 32.4664C9.92661 32.4664 9.54545 32.5476 9.22727 32.71C8.9124 32.8724 8.67045 33.0994 8.50142 33.3911C8.3357 33.6827 8.25284 34.0241 8.25284 34.4152C8.25284 34.6771 8.2893 34.914 8.36221 35.1262C8.43845 35.3383 8.54948 35.5222 8.69531 35.678C8.84114 35.8338 9.02178 35.9514 9.23721 36.031L9.04829 37.7114C8.60417 37.6053 8.21638 37.4031 7.88494 37.1048C7.55682 36.8099 7.30161 36.432 7.11932 35.9713C6.94034 35.5106 6.85085 34.9836 6.85085 34.3904ZM7 39.3085L14.6364 39.3085L14.6364 41.0535L13.3636 41.0535L13.3636 41.1331C13.8044 41.2723 14.1442 41.5109 14.3828 41.849C14.6248 42.1904 14.7457 42.5798 14.7457 43.0173C14.7457 43.1167 14.7408 43.2278 14.7308 43.3504C14.7242 43.4764 14.7126 43.5808 14.696 43.6636L13.0405 43.6636C13.067 43.5874 13.0902 43.4664 13.1101 43.3007C13.1333 43.1383 13.1449 42.9809 13.1449 42.8284C13.1449 42.5003 13.0736 42.2053 12.9311 41.9434C12.7919 41.6849 12.598 41.4811 12.3494 41.3319C12.1009 41.1828 11.8142 41.1082 11.4893 41.1082L7 41.1082L7 39.3085ZM7 44.8593L14.6364 44.8593L14.6364 46.659L7 46.659L7 44.8593ZM15.7202 45.7641C15.7202 45.4791 15.8146 45.2338 16.0035 45.0283C16.1958 44.8228 16.4261 44.7201 16.6946 44.7201C16.9664 44.7201 17.1967 44.8228 17.3857 45.0283C17.5779 45.2338 17.674 45.4791 17.674 45.7641C17.674 46.0525 17.5779 46.2977 17.3857 46.4999C17.1967 46.7054 16.9664 46.8081 16.6946 46.8081C16.4261 46.8081 16.1958 46.7054 16.0035 46.4999C15.8146 46.2977 15.7202 46.0525 15.7202 45.7641ZM6.85085 51.8406C6.85085 51.0949 7.01491 50.4486 7.34304 49.9017C7.67116 49.3548 8.13021 48.9306 8.72017 48.629C9.31013 48.3307 9.99952 48.1816 10.7884 48.1816C11.5772 48.1816 12.2682 48.3307 12.8615 48.629C13.4548 48.9306 13.9155 49.3548 14.2436 49.9017C14.5717 50.4486 14.7358 51.0949 14.7358 51.8406C14.7358 52.5864 14.5717 53.2327 14.2436 53.7796C13.9155 54.3264 13.4548 54.749 12.8615 55.0473C12.2682 55.3489 11.5772 55.4997 10.7884 55.4997C9.99952 55.4997 9.31013 55.3489 8.72017 55.0473C8.13021 54.749 7.67116 54.3264 7.34304 53.7796C7.01491 53.2327 6.85085 52.5864 6.85085 51.8406ZM8.29261 51.8506C8.29261 52.2549 8.40364 52.593 8.62571 52.8648C8.85109 53.1366 9.1527 53.3387 9.53054 53.4713C9.90838 53.6072 10.3293 53.6752 10.7933 53.6752C11.2607 53.6752 11.6832 53.6072 12.0611 53.4713C12.4422 53.3387 12.7455 53.1366 12.9709 52.8648C13.1963 52.593 13.3089 52.2549 13.3089 51.8506C13.3089 51.4363 13.1963 51.0916 12.9709 50.8165C12.7455 50.5447 12.4422 50.3409 12.0611 50.205C11.6832 50.0724 11.2607 50.0061 10.7933 50.0061C10.3293 50.0061 9.90838 50.0724 9.53054 50.205C9.1527 50.3409 8.85109 50.5447 8.62571 50.8165C8.40364 51.0916 8.29261 51.4363 8.29261 51.8506ZM13.7464 69.2947L13.7464 67.4353C14.0514 67.3823 14.3215 67.2845 14.5568 67.142C14.7955 66.9994 14.9976 66.8221 15.1633 66.61C15.3291 66.3979 15.4534 66.1559 15.5362 65.8841C15.6224 65.6157 15.6655 65.3257 15.6655 65.0141C15.6655 64.4606 15.5263 63.9701 15.2479 63.5425C14.9728 63.115 14.5684 62.7802 14.0348 62.5383C13.5045 62.2963 12.8565 62.1753 12.0909 62.1753C11.312 62.1753 10.6558 62.2963 10.1222 62.5383C9.59185 62.7835 9.19081 63.1183 8.91903 63.5425C8.65057 63.9701 8.51633 64.459 8.51633 65.0091C8.51633 65.3141 8.55611 65.5991 8.63565 65.8643C8.71851 66.1327 8.83949 66.373 8.99858 66.5851C9.15767 66.8006 9.35322 66.9812 9.58522 67.127C9.81723 67.2762 10.0824 67.3789 10.3807 67.4353L10.3707 69.2947C9.88683 69.2251 9.43276 69.0742 9.00852 68.8422C8.58428 68.6135 8.20975 68.3136 7.88494 67.9424C7.56344 67.5712 7.31155 67.137 7.12926 66.6398C6.95028 66.1427 6.86079 65.5908 6.86079 64.9843C6.86079 64.0894 7.06794 63.2906 7.48224 62.588C7.89654 61.8853 8.49479 61.3318 9.27699 60.9275C10.0592 60.5231 10.9972 60.3209 12.0909 60.3209C13.188 60.3209 14.1259 60.5248 14.9048 60.9324C15.687 61.3401 16.2853 61.8953 16.6996 62.5979C17.1139 63.3006 17.321 64.096 17.321 64.9843C17.321 65.551 17.2415 66.078 17.0824 66.5653C16.9233 67.0525 16.6896 67.4867 16.3814 67.8678C16.0765 68.249 15.7019 68.5622 15.2578 68.8074C14.817 69.056 14.3132 69.2184 13.7464 69.2947ZM11.4744 72.7039L7 72.7039L7 70.9042L17.1818 70.9042L17.1818 72.6642L13.3388 72.6642L13.3388 72.7536C13.7696 72.9326 14.1094 73.2094 14.358 73.5839C14.6098 73.9617 14.7358 74.4423 14.7358 75.0257C14.7358 75.556 14.6248 76.0183 14.4027 76.4127C14.1806 76.8071 13.8558 77.1121 13.4283 77.3275C13.0007 77.5463 12.4787 77.6556 11.8622 77.6556L7 77.6556L7 75.8559L11.5838 75.8559C12.0975 75.8559 12.4969 75.7233 12.782 75.4582C13.0703 75.1963 13.2145 74.8285 13.2145 74.3545C13.2145 74.0363 13.1449 73.7513 13.0057 73.4994C12.8698 73.2508 12.6726 73.0552 12.4141 72.9127C12.1555 72.7735 11.8423 72.7039 11.4744 72.7039ZM6.84588 81.6876C6.84588 81.2037 6.93205 80.7678 7.1044 80.3801C7.28006 79.9956 7.53859 79.6907 7.87997 79.4653C8.22135 79.2432 8.64228 79.1322 9.14275 79.1322C9.57362 79.1322 9.92992 79.2117 10.2116 79.3708C10.4934 79.5299 10.7187 79.747 10.8878 80.0221C11.0568 80.2972 11.1844 80.6071 11.2706 80.9518C11.3601 81.2998 11.4247 81.6594 11.4645 82.0306C11.5109 82.4781 11.5523 82.841 11.5888 83.1194C11.6285 83.3978 11.6882 83.6 11.7678 83.7259C11.8506 83.8552 11.9782 83.9198 12.1506 83.9198L12.1804 83.9198C12.5549 83.9198 12.8449 83.8088 13.0504 83.5867C13.2559 83.3647 13.3587 83.0448 13.3587 82.6272C13.3587 82.1864 13.2625 81.8367 13.0703 81.5782C12.8781 81.323 12.651 81.1507 12.3892 81.0612L12.6278 79.3808C13.0919 79.5133 13.4796 79.7321 13.7912 80.037C14.1061 80.3419 14.3414 80.7148 14.4972 81.1556C14.6562 81.5964 14.7358 82.0837 14.7358 82.6173C14.7358 82.9852 14.6927 83.3514 14.6065 83.716C14.5204 84.0806 14.3778 84.4137 14.179 84.7153C13.9834 85.0169 13.7166 85.2588 13.3785 85.4411C13.0405 85.6267 12.6179 85.7195 12.1108 85.7195L7 85.7195L7 83.9894L8.049 83.9894L8.049 83.9298C7.83688 83.8204 7.63802 83.6663 7.45241 83.4674C7.27012 83.2719 7.12263 83.0249 7.00994 82.7267C6.90056 82.4317 6.84588 82.0853 6.84588 81.6876ZM8.16832 82.1549C8.16832 82.5162 8.23958 82.8294 8.3821 83.0945C8.52793 83.3597 8.72017 83.5635 8.9588 83.7061C9.19744 83.8519 9.45762 83.9248 9.73934 83.9248L10.6392 83.9248C10.5928 83.8685 10.5497 83.7723 10.5099 83.6365C10.4702 83.5039 10.4354 83.3547 10.4055 83.189C10.3757 83.0233 10.3492 82.8592 10.326 82.6968C10.3028 82.5344 10.2829 82.3936 10.2663 82.2742C10.2299 82.0058 10.1702 81.7655 10.0874 81.5534C10.0045 81.3412 9.88849 81.1739 9.73934 81.0512C9.59351 80.9286 9.40459 80.8673 9.17258 80.8673C8.84114 80.8673 8.59091 80.9883 8.42187 81.2302C8.25284 81.4722 8.16832 81.7804 8.16832 82.1549ZM7 87.5292L14.6364 87.5292L14.6364 89.2742L13.3636 89.2742L13.3636 89.3538C13.8044 89.493 14.1442 89.7316 14.3828 90.0697C14.6248 90.4111 14.7457 90.8005 14.7457 91.238C14.7457 91.3374 14.7408 91.4485 14.7308 91.5711C14.7242 91.6971 14.7126 91.8015 14.696 91.8843L13.0405 91.8843C13.067 91.8081 13.0902 91.6871 13.1101 91.5214C13.1333 91.359 13.1449 91.2016 13.1449 91.0491C13.1449 90.721 13.0736 90.426 12.9311 90.1642C12.7919 89.9056 12.598 89.7018 12.3494 89.5526C12.1008 89.4035 11.8142 89.3289 11.4893 89.3289L7 89.3289L7 87.5292ZM14.6364 97.3034L13.2443 97.3034L13.2443 92.9134L14.6364 92.9134L14.6364 97.3034ZM16.4659 93.9972L16.4659 95.797L9.29687 95.797C9.05492 95.797 8.86931 95.8334 8.74005 95.9063C8.61411 95.9826 8.52793 96.082 8.48153 96.2046C8.43513 96.3273 8.41193 96.4632 8.41193 96.6123C8.41193 96.725 8.42021 96.8277 8.43679 96.9205C8.45336 97.0167 8.46827 97.0896 8.48153 97.1393L7.07457 97.4426C7.04143 97.3464 7.00497 97.2089 6.96519 97.0299C6.92542 96.8543 6.90222 96.6388 6.89559 96.3836C6.88233 95.9329 6.95028 95.5268 7.09943 95.1656C7.25189 94.8043 7.48721 94.5176 7.80539 94.3055C8.12358 94.0967 8.5213 93.9939 8.99858 93.9972L16.4659 93.9972ZM7 98.8085L14.6364 98.8085L14.6364 100.608L7 100.608L7 98.8085ZM15.7202 99.7133C15.7202 99.4283 15.8146 99.183 16.0035 98.9775C16.1958 98.772 16.4261 98.6693 16.6946 98.6693C16.9664 98.6693 17.1967 98.772 17.3856 98.9775C17.5779 99.183 17.674 99.4283 17.674 99.7133C17.674 100.002 17.5779 100.247 17.3856 100.449C17.1967 100.655 16.9664 100.757 16.6946 100.757C16.4261 100.757 16.1958 100.655 16.0035 100.449C15.8146 100.247 15.7202 100.002 15.7202 99.7133ZM11.4744 104.259L7 104.259L7 102.459L14.6364 102.459L14.6364 104.179L13.3388 104.179L13.3388 104.269C13.7663 104.444 14.1061 104.724 14.358 105.109C14.6098 105.497 14.7358 105.975 14.7358 106.546C14.7358 107.073 14.6231 107.532 14.3977 107.923C14.1723 108.317 13.8459 108.622 13.4183 108.837C12.9908 109.056 12.4721 109.164 11.8622 109.161L7 109.161L7 107.361L11.5838 107.361C12.0942 107.361 12.4936 107.228 12.782 106.963C13.0703 106.701 13.2145 106.338 13.2145 105.874C13.2145 105.56 13.1449 105.279 13.0057 105.034C12.8698 104.792 12.6726 104.602 12.4141 104.462C12.1555 104.327 11.8423 104.259 11.4744 104.259ZM3.97727 114.311C3.97727 113.665 4.0651 113.11 4.24076 112.646C4.41311 112.182 4.64512 111.809 4.93679 111.527C5.22845 111.245 5.55161 111.05 5.90625 110.94L6.299 112.561C6.14985 112.634 6.00236 112.74 5.85653 112.879C5.70738 113.019 5.58475 113.206 5.48863 113.441C5.3892 113.68 5.33948 113.98 5.33948 114.341C5.33948 114.851 5.46377 115.274 5.71235 115.609C5.95762 115.944 6.36197 116.111 6.92542 116.111L8.37215 116.111L8.37215 116.021C8.18655 115.929 7.99597 115.793 7.80042 115.614C7.60487 115.438 7.44081 115.204 7.30823 114.913C7.17566 114.624 7.10937 114.261 7.10937 113.824C7.10937 113.237 7.24692 112.705 7.52201 112.228C7.80042 111.754 8.21472 111.376 8.76491 111.095C9.31841 110.816 10.0111 110.677 10.843 110.677C11.6816 110.677 12.3892 110.816 12.9659 111.095C13.5459 111.376 13.9851 111.756 14.2834 112.233C14.585 112.71 14.7358 113.242 14.7358 113.829C14.7358 114.276 14.6596 114.644 14.5071 114.933C14.358 115.224 14.1773 115.456 13.9652 115.629C13.7564 115.801 13.5592 115.932 13.3736 116.021L13.3736 116.121L14.6364 116.121L14.6364 117.896L6.87571 117.896C6.22277 117.896 5.68252 117.74 5.25497 117.428C4.82741 117.117 4.50757 116.691 4.29545 116.151C4.08333 115.61 3.97727 114.997 3.97727 114.311ZM8.5213 114.326C8.5213 114.707 8.61411 115.032 8.79971 115.301C8.98532 115.569 9.25213 115.773 9.60014 115.912C9.94815 116.051 10.3658 116.121 10.853 116.121C11.3336 116.121 11.7545 116.051 12.1158 115.912C12.477 115.776 12.7571 115.574 12.956 115.305C13.1581 115.04 13.2592 114.714 13.2592 114.326C13.2592 113.925 13.1548 113.59 12.946 113.322C12.7372 113.053 12.4505 112.851 12.0859 112.715C11.7247 112.579 11.3137 112.511 10.853 112.511C10.3856 112.511 9.97632 112.579 9.625 112.715C9.27698 112.854 9.0052 113.058 8.80965 113.327C8.61742 113.599 8.5213 113.932 8.5213 114.326Z" fill="white"/>
</svg>
