<svg width="24" height="140" viewBox="0 0 24 140" fill="none" xmlns="http://www.w3.org/2000/svg">
<g clip-path="url(#clip0_2481_7565)">
<path d="M0 0H20C22.2091 0 24 1.79086 24 4V136C24 138.209 22.2091 140 20 140H0V0Z" fill="current"/>
<path d="M7 22.3324L17.1818 22.3324L17.1818 26.1506C17.1818 26.9328 17.036 27.589 16.7443 28.1193C16.4527 28.6529 16.0516 29.0556 15.5412 29.3274C15.0341 29.6025 14.4574 29.7401 13.8111 29.7401C13.1581 29.7401 12.5781 29.6025 12.071 29.3274C11.5639 29.0523 11.1645 28.6463 10.8729 28.1094C10.5845 27.5724 10.4403 26.9112 10.4403 26.1257L10.4403 23.5952L11.9567 23.5952L11.9567 25.8771C11.9567 26.3345 12.0362 26.709 12.1953 27.0007C12.3544 27.2924 12.5732 27.5078 12.8516 27.647C13.13 27.7895 13.4498 27.8608 13.8111 27.8608C14.1723 27.8608 14.4905 27.7895 14.7656 27.647C15.0407 27.5078 15.2545 27.2907 15.407 26.9957C15.5627 26.7041 15.6406 26.3279 15.6406 25.8672L15.6406 24.1768L7 24.1768L7 22.3324ZM6.84588 33.3233C6.84588 32.8394 6.93205 32.4036 7.1044 32.0158C7.28006 31.6313 7.53859 31.3264 7.87997 31.101C8.22135 30.879 8.64228 30.7679 9.14275 30.7679C9.57363 30.7679 9.92992 30.8475 10.2116 31.0066C10.4934 31.1657 10.7187 31.3828 10.8878 31.6578C11.0568 31.9329 11.1844 32.2428 11.2706 32.5875C11.3601 32.9355 11.4247 33.2952 11.4645 33.6664C11.5109 34.1138 11.5523 34.4767 11.5888 34.7551C11.6285 35.0336 11.6882 35.2357 11.7678 35.3617C11.8506 35.4909 11.9782 35.5556 12.1506 35.5556L12.1804 35.5556C12.5549 35.5556 12.8449 35.4445 13.0504 35.2225C13.2559 35.0004 13.3587 34.6806 13.3587 34.263C13.3587 33.8221 13.2625 33.4725 13.0703 33.214C12.8781 32.9587 12.651 32.7864 12.3892 32.6969L12.6278 31.0165C13.0919 31.1491 13.4796 31.3678 13.7912 31.6728C14.1061 31.9777 14.3414 32.3506 14.4972 32.7914C14.6562 33.2322 14.7358 33.7194 14.7358 34.253C14.7358 34.6209 14.6927 34.9872 14.6065 35.3517C14.5204 35.7163 14.3778 36.0494 14.179 36.351C13.9834 36.6526 13.7166 36.8946 13.3785 37.0769C13.0405 37.2625 12.6179 37.3553 12.1108 37.3553L7 37.3553L7 35.6252L8.049 35.6252L8.049 35.5655C7.83688 35.4561 7.63802 35.302 7.45241 35.1032C7.27012 34.9076 7.12263 34.6607 7.00994 34.3624C6.90057 34.0674 6.84588 33.7211 6.84588 33.3233ZM8.16832 33.7907C8.16832 34.1519 8.23958 34.4651 8.3821 34.7303C8.52793 34.9954 8.72017 35.1993 8.95881 35.3418C9.19744 35.4876 9.45762 35.5605 9.73935 35.5605L10.6392 35.5605C10.5928 35.5042 10.5497 35.4081 10.5099 35.2722C10.4702 35.1396 10.4354 34.9905 10.4055 34.8248C10.3757 34.659 10.3492 34.495 10.326 34.3326C10.3028 34.1702 10.2829 34.0293 10.2663 33.91C10.2299 33.6415 10.1702 33.4012 10.0874 33.1891C10.0045 32.977 9.88849 32.8096 9.73935 32.687C9.59351 32.5643 9.40459 32.503 9.17258 32.503C8.84114 32.503 8.59091 32.624 8.42187 32.8659C8.25284 33.1079 8.16832 33.4161 8.16832 33.7907ZM14.6364 42.9782L13.2443 42.9782L13.2443 38.5882L14.6364 38.5882L14.6364 42.9782ZM16.4659 39.6721L16.4659 41.4718L9.29687 41.4718C9.05492 41.4718 8.86932 41.5082 8.74006 41.5811C8.61411 41.6574 8.52793 41.7568 8.48153 41.8794C8.43513 42.0021 8.41193 42.138 8.41193 42.2871C8.41193 42.3998 8.42022 42.5025 8.43679 42.5953C8.45336 42.6915 8.46827 42.7644 8.48153 42.8141L7.07457 43.1174C7.04143 43.0212 7.00497 42.8837 6.9652 42.7047C6.92542 42.5291 6.90222 42.3136 6.89559 42.0584C6.88234 41.6077 6.95028 41.2016 7.09943 40.8404C7.25189 40.4791 7.48721 40.1924 7.8054 39.9803C8.12358 39.7715 8.52131 39.6687 8.99858 39.6721L16.4659 39.6721ZM7 44.4833L14.6364 44.4833L14.6364 46.283L7 46.283L7 44.4833ZM15.7202 45.3881C15.7202 45.1031 15.8146 44.8578 16.0035 44.6523C16.1958 44.4469 16.4261 44.3441 16.6946 44.3441C16.9664 44.3441 17.1967 44.4469 17.3857 44.6523C17.5779 44.8578 17.674 45.1031 17.674 45.3881C17.674 45.6765 17.5779 45.9218 17.3857 46.1239C17.1967 46.3294 16.9664 46.4322 16.6946 46.4322C16.4261 46.4322 16.1958 46.3294 16.0035 46.1239C15.8146 45.9218 15.7202 45.6765 15.7202 45.3881ZM6.85085 51.5144C6.85085 50.7488 7.00994 50.0875 7.32812 49.5307C7.64962 48.9772 8.10369 48.5513 8.69034 48.253C9.2803 47.9547 9.97467 47.8056 10.7734 47.8056C11.5589 47.8056 12.2483 47.9547 12.8416 48.253C13.4382 48.5546 13.9022 48.9756 14.2337 49.5158C14.5684 50.056 14.7358 50.6908 14.7358 51.4199C14.7358 51.8906 14.6596 52.3347 14.5071 52.7523C14.358 53.1732 14.1259 53.5444 13.8111 53.8659C13.4962 54.1908 13.0952 54.446 12.608 54.6316C12.1241 54.8172 11.5473 54.91 10.8778 54.91L10.326 54.91L10.326 48.6507L11.5391 48.6507L11.5391 53.1848C11.8838 53.1815 12.1903 53.1069 12.4588 52.9611C12.7306 52.8153 12.9444 52.6114 13.1001 52.3496C13.2559 52.0911 13.3338 51.7895 13.3338 51.4448C13.3338 51.0769 13.2443 50.7537 13.0653 50.4753C12.8897 50.1969 12.6577 49.9798 12.3693 49.824C12.0843 49.6716 11.7711 49.5937 11.4297 49.5904L10.3707 49.5904C9.92661 49.5904 9.54545 49.6716 9.22727 49.834C8.9124 49.9964 8.67045 50.2234 8.50142 50.5151C8.3357 50.8068 8.25284 51.1481 8.25284 51.5392C8.25284 51.8011 8.2893 52.0381 8.36221 52.2502C8.43844 52.4623 8.54948 52.6462 8.69531 52.802C8.84114 52.9578 9.02178 53.0755 9.23721 53.155L9.04829 54.8354C8.60416 54.7293 8.21638 54.5272 7.88494 54.2289C7.55682 53.9339 7.30161 53.556 7.11932 53.0953C6.94034 52.6346 6.85085 52.1077 6.85085 51.5144ZM11.4744 58.2322L7 58.2322L7 56.4325L14.6364 56.4325L14.6364 58.1527L13.3388 58.1527L13.3388 58.2422C13.7663 58.4179 14.1061 58.6979 14.358 59.0824C14.6098 59.4702 14.7358 59.9491 14.7358 60.5192C14.7358 61.0462 14.6231 61.5052 14.3977 61.8963C14.1723 62.2907 13.8459 62.5956 13.4183 62.8111C12.9908 63.0298 12.4721 63.1375 11.8622 63.1342L7 63.1342L7 61.3345L11.5838 61.3345C12.0942 61.3345 12.4936 61.2019 12.782 60.9368C13.0703 60.675 13.2145 60.312 13.2145 59.848C13.2145 59.5331 13.1449 59.2531 13.0057 59.0078C12.8698 58.7659 12.6726 58.5753 12.4141 58.4361C12.1555 58.3002 11.8423 58.2322 11.4744 58.2322ZM14.6364 68.777L13.2443 68.777L13.2443 64.3871L14.6364 64.3871L14.6364 68.777ZM16.4659 65.4709L16.4659 67.2706L9.29687 67.2706C9.05492 67.2706 8.86932 67.3071 8.74005 67.38C8.61411 67.4562 8.52793 67.5556 8.48153 67.6783C8.43513 67.8009 8.41193 67.9368 8.41193 68.0859C8.41193 68.1986 8.42021 68.3014 8.43679 68.3942C8.45336 68.4903 8.46827 68.5632 8.48153 68.6129L7.07457 68.9162C7.04143 68.8201 7.00497 68.6825 6.9652 68.5036C6.92542 68.3279 6.90222 68.1125 6.89559 67.8572C6.88234 67.4065 6.95028 67.0005 7.09943 66.6392C7.25189 66.2779 7.48721 65.9912 7.80539 65.7791C8.12358 65.5703 8.5213 65.4676 8.99858 65.4709L16.4659 65.4709ZM7 73.8343L17.1818 73.8343L17.1818 77.6525C17.1818 78.4347 17.0459 79.091 16.7741 79.6213C16.5024 80.1549 16.1212 80.5576 15.6307 80.8294C15.1435 81.1045 14.575 81.242 13.9254 81.242C13.2725 81.242 12.7057 81.1028 12.2251 80.8244C11.7479 80.5493 11.3783 80.1433 11.1165 79.6064C10.858 79.0694 10.7287 78.4099 10.7287 77.6277L10.7287 74.9082L12.2599 74.9082L12.2599 77.3791C12.2599 77.8365 12.3229 78.211 12.4489 78.5027C12.5781 78.7943 12.7654 79.0098 13.0107 79.149C13.2592 79.2915 13.5642 79.3627 13.9254 79.3627C14.2867 79.3627 14.5949 79.2915 14.8501 79.149C15.1087 79.0065 15.3042 78.7894 15.4368 78.4977C15.5727 78.206 15.6406 77.8298 15.6406 77.3691L15.6406 75.6788L7 75.6788L7 73.8343ZM11.6136 79.0943L7 81.6149L7 79.5566L11.6136 77.0808L11.6136 79.0943ZM6.85085 86.1316C6.85085 85.3659 7.00994 84.7047 7.32812 84.1479C7.64962 83.5944 8.10369 83.1685 8.69034 82.8702C9.2803 82.5719 9.97467 82.4228 10.7734 82.4228C11.5589 82.4228 12.2483 82.5719 12.8416 82.8702C13.4382 83.1718 13.9022 83.5927 14.2337 84.133C14.5684 84.6732 14.7358 85.3079 14.7358 86.0371C14.7358 86.5078 14.6596 86.9519 14.5071 87.3695C14.358 87.7904 14.1259 88.1616 13.8111 88.4831C13.4962 88.8079 13.0952 89.0632 12.608 89.2488C12.124 89.4344 11.5473 89.5272 10.8778 89.5272L10.326 89.5272L10.326 83.2679L11.5391 83.2679L11.5391 87.802C11.8838 87.7987 12.1903 87.7241 12.4588 87.5783C12.7306 87.4325 12.9444 87.2286 13.1001 86.9668C13.2559 86.7083 13.3338 86.4067 13.3338 86.062C13.3338 85.6941 13.2443 85.3709 13.0653 85.0925C12.8897 84.8141 12.6577 84.597 12.3693 84.4412C12.0843 84.2888 11.7711 84.2109 11.4297 84.2076L10.3707 84.2076C9.92661 84.2076 9.54545 84.2888 9.22727 84.4512C8.9124 84.6136 8.67045 84.8406 8.50142 85.1323C8.3357 85.4239 8.25284 85.7653 8.25284 86.1564C8.25284 86.4183 8.2893 86.6552 8.36221 86.8674C8.43844 87.0795 8.54948 87.2634 8.69531 87.4192C8.84114 87.575 9.02178 87.6926 9.23721 87.7722L9.04829 89.4526C8.60416 89.3465 8.21638 89.1444 7.88494 88.8461C7.55681 88.5511 7.30161 88.1732 7.11931 87.7125C6.94034 87.2518 6.85085 86.7248 6.85085 86.1316ZM4.13636 91.0497L14.6364 91.0497L14.6364 92.8196L13.3736 92.8196L13.3736 92.924C13.5592 93.0168 13.7564 93.1477 13.9652 93.3168C14.1773 93.4858 14.358 93.7145 14.5071 94.0028C14.6596 94.2912 14.7358 94.6591 14.7358 95.1065C14.7358 95.6965 14.585 96.2285 14.2834 96.7024C13.9851 97.1797 13.5426 97.5575 12.956 97.8359C12.3726 98.1177 11.6567 98.2585 10.8082 98.2585C9.96969 98.2585 9.2571 98.121 8.67045 97.8459C8.0838 97.5708 7.63636 97.1963 7.32812 96.7223C7.01988 96.2483 6.86576 95.7114 6.86576 95.1115C6.86576 94.674 6.93868 94.3111 7.08451 94.0227C7.23035 93.7344 7.40601 93.5024 7.6115 93.3267C7.82031 93.1544 8.01751 93.0201 8.20312 92.924L8.20312 92.8494L4.13636 92.8494L4.13636 91.0497ZM10.8182 92.8146C10.3243 92.8146 9.8918 92.8842 9.52059 93.0234C9.14938 93.166 8.85937 93.3698 8.65056 93.6349C8.44507 93.9034 8.34233 94.2282 8.34233 94.6094C8.34233 95.0071 8.44839 95.3402 8.66051 95.6087C8.87594 95.8771 9.16927 96.0793 9.54048 96.2152C9.91501 96.3544 10.3409 96.424 10.8182 96.424C11.2921 96.424 11.7131 96.3561 12.081 96.2202C12.4489 96.0843 12.7372 95.8821 12.946 95.6136C13.1548 95.3452 13.2592 95.0104 13.2592 94.6094C13.2592 94.2249 13.1581 93.8984 12.956 93.63C12.7538 93.3615 12.4704 93.1577 12.1058 93.0185C11.7412 92.8826 11.312 92.8146 10.8182 92.8146ZM6.85085 103.131C6.85085 102.385 7.01491 101.739 7.34304 101.192C7.67116 100.645 8.1302 100.221 8.72017 99.919C9.31013 99.6207 9.99952 99.4716 10.7883 99.4716C11.5772 99.4716 12.2682 99.6207 12.8615 99.919C13.4548 100.221 13.9155 100.645 14.2436 101.192C14.5717 101.739 14.7358 102.385 14.7358 103.131C14.7358 103.876 14.5717 104.523 14.2436 105.07C13.9155 105.616 13.4548 106.039 12.8615 106.337C12.2682 106.639 11.5772 106.79 10.7883 106.79C9.99952 106.79 9.31013 106.639 8.72017 106.337C8.1302 106.039 7.67116 105.616 7.34304 105.07C7.01491 104.523 6.85085 103.876 6.85085 103.131ZM8.29261 103.141C8.29261 103.545 8.40364 103.883 8.62571 104.155C8.85108 104.427 9.15269 104.629 9.53054 104.761C9.90838 104.897 10.3293 104.965 10.7933 104.965C11.2606 104.965 11.6832 104.897 12.0611 104.761C12.4422 104.629 12.7455 104.427 12.9709 104.155C13.1963 103.883 13.3089 103.545 13.3089 103.141C13.3089 102.726 13.1963 102.382 12.9709 102.107C12.7455 101.835 12.4422 101.631 12.0611 101.495C11.6832 101.362 11.2606 101.296 10.7933 101.296C10.3293 101.296 9.90838 101.362 9.53054 101.495C9.15269 101.631 8.85108 101.835 8.62571 102.107C8.40364 102.382 8.29261 102.726 8.29261 103.141ZM7 108.317L14.6364 108.317L14.6364 110.062L13.3636 110.062L13.3636 110.142C13.8044 110.281 14.1442 110.52 14.3828 110.858C14.6248 111.199 14.7457 111.589 14.7457 112.026C14.7457 112.126 14.7408 112.237 14.7308 112.359C14.7242 112.485 14.7126 112.59 14.696 112.672L13.0405 112.672C13.067 112.596 13.0902 112.475 13.1101 112.309C13.1333 112.147 13.1449 111.99 13.1449 111.837C13.1449 111.509 13.0736 111.214 12.9311 110.952C12.7919 110.694 12.598 110.49 12.3494 110.341C12.1008 110.192 11.8142 110.117 11.4893 110.117L7 110.117L7 108.317ZM14.6364 118.091L13.2443 118.091L13.2443 113.702L14.6364 113.702L14.6364 118.091ZM16.4659 114.785L16.4659 116.585L9.29687 116.585C9.05492 116.585 8.86931 116.622 8.74005 116.694C8.6141 116.771 8.52793 116.87 8.48153 116.993C8.43513 117.115 8.41193 117.251 8.41193 117.4C8.41193 117.513 8.42021 117.616 8.43678 117.709C8.45336 117.805 8.46827 117.878 8.48153 117.927L7.07457 118.231C7.04142 118.135 7.00497 117.997 6.96519 117.818C6.92542 117.642 6.90222 117.427 6.89559 117.172C6.88233 116.721 6.95028 116.315 7.09943 115.954C7.25189 115.592 7.48721 115.306 7.80539 115.094C8.12357 114.885 8.5213 114.782 8.99857 114.785L16.4659 114.785Z" fill="white"/>
</g>
<defs>
<clipPath id="clip0_2481_7565">
<path d="M0 0H20C22.2091 0 24 1.79086 24 4V136C24 138.209 22.2091 140 20 140H0V0Z" fill="white"/>
</clipPath>
</defs>
</svg>
