<svg width="26" height="26" viewBox="0 0 26 26" fill="none" xmlns="http://www.w3.org/2000/svg">
<path fill-rule="evenodd" clip-rule="evenodd" d="M0.5 0.5H25.5V25.5H0.5V0.5ZM2.20711 1.5L8.47147 7.76437H17.5285L23.7929 1.5H2.20711ZM24.5 2.20711L18.2356 8.47147V17.5285L24.5 23.7929V2.20711ZM23.7929 24.5L17.5285 18.2356H8.47147L2.20711 24.5H23.7929ZM1.5 23.7929V2.20711L7.76437 8.47147V17.5285L1.5 23.7929ZM8.76437 17.2356H17.2356V8.76437H8.76437V17.2356Z" fill="#1C1D23"/>
<path fill-rule="evenodd" clip-rule="evenodd" d="M0.5 0.5H25.5V25.5H0.5V0.5ZM2.20711 1.5L8.47147 7.76437H17.5285L23.7929 1.5H2.20711ZM24.5 2.20711L18.2356 8.47147V17.5285L24.5 23.7929V2.20711ZM23.7929 24.5L17.5285 18.2356H8.47147L2.20711 24.5H23.7929ZM1.5 23.7929V2.20711L7.76437 8.47147V17.5285L1.5 23.7929ZM8.76437 17.2356H17.2356V8.76437H8.76437V17.2356Z" fill="#1C1D23"/>
</svg>
