<svg width="25" height="25" viewBox="0 0 26 26" fill="none" xmlns="http://www.w3.org/2000/svg">
<path d="M7.5 7.5H17.5V17.5H7.5V7.5Z" fill="current"/>
<path fill-rule="evenodd" clip-rule="evenodd" d="M0 0H25V25H0V0ZM1.70711 1L7.97147 7.26437H17.0285L23.2929 1H1.70711ZM24 1.70711L17.7356 7.97147V17.0285L24 23.2929V1.70711ZM23.2929 24L17.0285 17.7356H7.97147L1.70711 24H23.2929ZM1 23.2929V1.70711L7.26437 7.97147V17.0285L1 23.2929ZM8.26437 16.7356H16.7356V8.26437H8.26437V16.7356Z" fill="transparent" />
<path fill-rule="evenodd" clip-rule="evenodd" d="M0 0H25V25H0V0ZM1.70711 1L7.97147 7.26437H17.0285L23.2929 1H1.70711ZM24 1.70711L17.7356 7.97147V17.0285L24 23.2929V1.70711ZM23.2929 24L17.0285 17.7356H7.97147L1.70711 24H23.2929ZM1 23.2929V1.70711L7.26437 7.97147V17.0285L1 23.2929ZM8.26437 16.7356H16.7356V8.26437H8.26437V16.7356Z" fill="transparent"/>
</svg>
