<svg width="16" height="16" viewBox="0 0 16 16" fill="none" xmlns="http://www.w3.org/2000/svg">
<path d="M12.6865 12V14H2.68652V12H1.68652V14L1.69032 13.9976C1.68985 14.1288 1.71525 14.2589 1.76507 14.3803C1.81489 14.5017 1.88815 14.6121 1.98067 14.7052C2.07319 14.7983 2.18315 14.8723 2.30426 14.9229C2.42538 14.9734 2.55527 14.9997 2.68652 15H12.6865C12.9517 15 13.2061 14.8946 13.3936 14.7071C13.5812 14.5196 13.6865 14.2652 13.6865 14V12H12.6865Z" fill="white"/>
<path d="M2.68652 6L3.39202 6.7025L7.18652 2.9125V12H8.18652V2.9125L11.982 6.7025L12.6865 6L7.68652 1L2.68652 6Z" fill="current"/>
</svg>
