<svg width="16" height="17" viewBox="0 0 16 17" fill="none" xmlns="http://www.w3.org/2000/svg">
<path d="M8.001 3.24538H7.999L2.32435 14.158L2.3253 14.1597H13.6747L13.6757 14.158L8.001 3.24538ZM7.4375 6.15968H8.5625V10.6597H7.4375V6.15968ZM8 13.1597C7.85167 13.1597 7.70666 13.1157 7.58333 13.0333C7.45999 12.9509 7.36386 12.8337 7.30709 12.6967C7.25033 12.5596 7.23548 12.4088 7.26441 12.2634C7.29335 12.1179 7.36478 11.9842 7.46967 11.8793C7.57456 11.7745 7.7082 11.703 7.85369 11.6741C7.99917 11.6451 8.14997 11.66 8.28702 11.7168C8.42406 11.7735 8.54119 11.8697 8.62361 11.993C8.70602 12.1163 8.75 12.2613 8.75 12.4097C8.75 12.6086 8.67099 12.7994 8.53033 12.94C8.38968 13.0807 8.19892 13.1597 8 13.1597Z" fill="#D8C840"/>
<path d="M14.5 15.1597H1.5C1.4141 15.1597 1.32965 15.1375 1.25478 15.0954C1.17992 15.0533 1.11718 14.9926 1.0726 14.9191C1.02802 14.8457 1.00311 14.762 1.00027 14.6762C0.997436 14.5903 1.01677 14.5052 1.0564 14.429L7.5564 1.92898C7.59862 1.84779 7.66231 1.77975 7.74053 1.73227C7.81875 1.68478 7.9085 1.65967 8 1.65967C8.09151 1.65967 8.18126 1.68478 8.25948 1.73227C8.3377 1.77975 8.40138 1.84779 8.4436 1.92898L14.9436 14.429C14.9832 14.5052 15.0026 14.5903 14.9997 14.6762C14.9969 14.762 14.972 14.8457 14.9274 14.9191C14.8828 14.9926 14.8201 15.0533 14.7452 15.0954C14.6704 15.1375 14.5859 15.1597 14.5 15.1597ZM2.3253 14.1597H13.6747L13.6757 14.158L8.001 3.24538H7.999L2.32435 14.158L2.3253 14.1597Z" fill="#D8C840"/>
</svg>
